%TF.GenerationSoftware,KiCad,Pcbnew,9.0.6*%
%TF.CreationDate,2025-12-09T00:58:21-06:00*%
%TF.ProjectId,Mixed_Signal_generator_analyzer,4d697865-645f-4536-9967-6e616c5f6765,rev?*%
%TF.SameCoordinates,Original*%
%TF.FileFunction,Legend,Bot*%
%TF.FilePolarity,Positive*%
%FSLAX46Y46*%
G04 Gerber Fmt 4.6, Leading zero omitted, Abs format (unit mm)*
G04 Created by KiCad (PCBNEW 9.0.6) date 2025-12-09 00:58:21*
%MOMM*%
%LPD*%
G01*
G04 APERTURE LIST*
%ADD10C,0.150000*%
G04 APERTURE END LIST*
D10*
X104389411Y-128619819D02*
X104960839Y-128619819D01*
X104675125Y-128619819D02*
X104675125Y-127619819D01*
X104675125Y-127619819D02*
X104770363Y-127762676D01*
X104770363Y-127762676D02*
X104865601Y-127857914D01*
X104865601Y-127857914D02*
X104960839Y-127905533D01*
X103198934Y-128619819D02*
X103198934Y-127619819D01*
X103198934Y-127619819D02*
X102865601Y-128334104D01*
X102865601Y-128334104D02*
X102532268Y-127619819D01*
X102532268Y-127619819D02*
X102532268Y-128619819D01*
X101865601Y-127619819D02*
X101675125Y-127619819D01*
X101675125Y-127619819D02*
X101579887Y-127667438D01*
X101579887Y-127667438D02*
X101484649Y-127762676D01*
X101484649Y-127762676D02*
X101437030Y-127953152D01*
X101437030Y-127953152D02*
X101437030Y-128286485D01*
X101437030Y-128286485D02*
X101484649Y-128476961D01*
X101484649Y-128476961D02*
X101579887Y-128572200D01*
X101579887Y-128572200D02*
X101675125Y-128619819D01*
X101675125Y-128619819D02*
X101865601Y-128619819D01*
X101865601Y-128619819D02*
X101960839Y-128572200D01*
X101960839Y-128572200D02*
X102056077Y-128476961D01*
X102056077Y-128476961D02*
X102103696Y-128286485D01*
X102103696Y-128286485D02*
X102103696Y-127953152D01*
X102103696Y-127953152D02*
X102056077Y-127762676D01*
X102056077Y-127762676D02*
X101960839Y-127667438D01*
X101960839Y-127667438D02*
X101865601Y-127619819D01*
X101008458Y-128619819D02*
X101008458Y-127619819D01*
X101008458Y-128096009D02*
X100437030Y-128096009D01*
X100437030Y-128619819D02*
X100437030Y-127619819D01*
X99960839Y-128619819D02*
X99960839Y-127619819D01*
X99960839Y-127619819D02*
X99627506Y-128334104D01*
X99627506Y-128334104D02*
X99294173Y-127619819D01*
X99294173Y-127619819D02*
X99294173Y-128619819D01*
X98865601Y-128572200D02*
X98722744Y-128619819D01*
X98722744Y-128619819D02*
X98484649Y-128619819D01*
X98484649Y-128619819D02*
X98389411Y-128572200D01*
X98389411Y-128572200D02*
X98341792Y-128524580D01*
X98341792Y-128524580D02*
X98294173Y-128429342D01*
X98294173Y-128429342D02*
X98294173Y-128334104D01*
X98294173Y-128334104D02*
X98341792Y-128238866D01*
X98341792Y-128238866D02*
X98389411Y-128191247D01*
X98389411Y-128191247D02*
X98484649Y-128143628D01*
X98484649Y-128143628D02*
X98675125Y-128096009D01*
X98675125Y-128096009D02*
X98770363Y-128048390D01*
X98770363Y-128048390D02*
X98817982Y-128000771D01*
X98817982Y-128000771D02*
X98865601Y-127905533D01*
X98865601Y-127905533D02*
X98865601Y-127810295D01*
X98865601Y-127810295D02*
X98817982Y-127715057D01*
X98817982Y-127715057D02*
X98770363Y-127667438D01*
X98770363Y-127667438D02*
X98675125Y-127619819D01*
X98675125Y-127619819D02*
X98437030Y-127619819D01*
X98437030Y-127619819D02*
X98294173Y-127667438D01*
X125389411Y-116917438D02*
X125484649Y-116869819D01*
X125484649Y-116869819D02*
X125627506Y-116869819D01*
X125627506Y-116869819D02*
X125770363Y-116917438D01*
X125770363Y-116917438D02*
X125865601Y-117012676D01*
X125865601Y-117012676D02*
X125913220Y-117107914D01*
X125913220Y-117107914D02*
X125960839Y-117298390D01*
X125960839Y-117298390D02*
X125960839Y-117441247D01*
X125960839Y-117441247D02*
X125913220Y-117631723D01*
X125913220Y-117631723D02*
X125865601Y-117726961D01*
X125865601Y-117726961D02*
X125770363Y-117822200D01*
X125770363Y-117822200D02*
X125627506Y-117869819D01*
X125627506Y-117869819D02*
X125532268Y-117869819D01*
X125532268Y-117869819D02*
X125389411Y-117822200D01*
X125389411Y-117822200D02*
X125341792Y-117774580D01*
X125341792Y-117774580D02*
X125341792Y-117441247D01*
X125341792Y-117441247D02*
X125532268Y-117441247D01*
X124913220Y-117869819D02*
X124913220Y-116869819D01*
X124913220Y-116869819D02*
X124341792Y-117869819D01*
X124341792Y-117869819D02*
X124341792Y-116869819D01*
X123865601Y-117869819D02*
X123865601Y-116869819D01*
X123865601Y-116869819D02*
X123627506Y-116869819D01*
X123627506Y-116869819D02*
X123484649Y-116917438D01*
X123484649Y-116917438D02*
X123389411Y-117012676D01*
X123389411Y-117012676D02*
X123341792Y-117107914D01*
X123341792Y-117107914D02*
X123294173Y-117298390D01*
X123294173Y-117298390D02*
X123294173Y-117441247D01*
X123294173Y-117441247D02*
X123341792Y-117631723D01*
X123341792Y-117631723D02*
X123389411Y-117726961D01*
X123389411Y-117726961D02*
X123484649Y-117822200D01*
X123484649Y-117822200D02*
X123627506Y-117869819D01*
X123627506Y-117869819D02*
X123865601Y-117869819D01*
X129687030Y-127619819D02*
X130163220Y-127619819D01*
X130163220Y-127619819D02*
X130210839Y-128096009D01*
X130210839Y-128096009D02*
X130163220Y-128048390D01*
X130163220Y-128048390D02*
X130067982Y-128000771D01*
X130067982Y-128000771D02*
X129829887Y-128000771D01*
X129829887Y-128000771D02*
X129734649Y-128048390D01*
X129734649Y-128048390D02*
X129687030Y-128096009D01*
X129687030Y-128096009D02*
X129639411Y-128191247D01*
X129639411Y-128191247D02*
X129639411Y-128429342D01*
X129639411Y-128429342D02*
X129687030Y-128524580D01*
X129687030Y-128524580D02*
X129734649Y-128572200D01*
X129734649Y-128572200D02*
X129829887Y-128619819D01*
X129829887Y-128619819D02*
X130067982Y-128619819D01*
X130067982Y-128619819D02*
X130163220Y-128572200D01*
X130163220Y-128572200D02*
X130210839Y-128524580D01*
X129020363Y-127619819D02*
X128925125Y-127619819D01*
X128925125Y-127619819D02*
X128829887Y-127667438D01*
X128829887Y-127667438D02*
X128782268Y-127715057D01*
X128782268Y-127715057D02*
X128734649Y-127810295D01*
X128734649Y-127810295D02*
X128687030Y-128000771D01*
X128687030Y-128000771D02*
X128687030Y-128238866D01*
X128687030Y-128238866D02*
X128734649Y-128429342D01*
X128734649Y-128429342D02*
X128782268Y-128524580D01*
X128782268Y-128524580D02*
X128829887Y-128572200D01*
X128829887Y-128572200D02*
X128925125Y-128619819D01*
X128925125Y-128619819D02*
X129020363Y-128619819D01*
X129020363Y-128619819D02*
X129115601Y-128572200D01*
X129115601Y-128572200D02*
X129163220Y-128524580D01*
X129163220Y-128524580D02*
X129210839Y-128429342D01*
X129210839Y-128429342D02*
X129258458Y-128238866D01*
X129258458Y-128238866D02*
X129258458Y-128000771D01*
X129258458Y-128000771D02*
X129210839Y-127810295D01*
X129210839Y-127810295D02*
X129163220Y-127715057D01*
X129163220Y-127715057D02*
X129115601Y-127667438D01*
X129115601Y-127667438D02*
X129020363Y-127619819D01*
X127306077Y-127619819D02*
X127115601Y-127619819D01*
X127115601Y-127619819D02*
X127020363Y-127667438D01*
X127020363Y-127667438D02*
X126925125Y-127762676D01*
X126925125Y-127762676D02*
X126877506Y-127953152D01*
X126877506Y-127953152D02*
X126877506Y-128286485D01*
X126877506Y-128286485D02*
X126925125Y-128476961D01*
X126925125Y-128476961D02*
X127020363Y-128572200D01*
X127020363Y-128572200D02*
X127115601Y-128619819D01*
X127115601Y-128619819D02*
X127306077Y-128619819D01*
X127306077Y-128619819D02*
X127401315Y-128572200D01*
X127401315Y-128572200D02*
X127496553Y-128476961D01*
X127496553Y-128476961D02*
X127544172Y-128286485D01*
X127544172Y-128286485D02*
X127544172Y-127953152D01*
X127544172Y-127953152D02*
X127496553Y-127762676D01*
X127496553Y-127762676D02*
X127401315Y-127667438D01*
X127401315Y-127667438D02*
X127306077Y-127619819D01*
X126448934Y-128619819D02*
X126448934Y-127619819D01*
X126448934Y-128096009D02*
X125877506Y-128096009D01*
X125877506Y-128619819D02*
X125877506Y-127619819D01*
X125401315Y-128619819D02*
X125401315Y-127619819D01*
X125401315Y-127619819D02*
X125067982Y-128334104D01*
X125067982Y-128334104D02*
X124734649Y-127619819D01*
X124734649Y-127619819D02*
X124734649Y-128619819D01*
X124306077Y-128572200D02*
X124163220Y-128619819D01*
X124163220Y-128619819D02*
X123925125Y-128619819D01*
X123925125Y-128619819D02*
X123829887Y-128572200D01*
X123829887Y-128572200D02*
X123782268Y-128524580D01*
X123782268Y-128524580D02*
X123734649Y-128429342D01*
X123734649Y-128429342D02*
X123734649Y-128334104D01*
X123734649Y-128334104D02*
X123782268Y-128238866D01*
X123782268Y-128238866D02*
X123829887Y-128191247D01*
X123829887Y-128191247D02*
X123925125Y-128143628D01*
X123925125Y-128143628D02*
X124115601Y-128096009D01*
X124115601Y-128096009D02*
X124210839Y-128048390D01*
X124210839Y-128048390D02*
X124258458Y-128000771D01*
X124258458Y-128000771D02*
X124306077Y-127905533D01*
X124306077Y-127905533D02*
X124306077Y-127810295D01*
X124306077Y-127810295D02*
X124258458Y-127715057D01*
X124258458Y-127715057D02*
X124210839Y-127667438D01*
X124210839Y-127667438D02*
X124115601Y-127619819D01*
X124115601Y-127619819D02*
X123877506Y-127619819D01*
X123877506Y-127619819D02*
X123734649Y-127667438D01*
X105960839Y-117822200D02*
X105817982Y-117869819D01*
X105817982Y-117869819D02*
X105579887Y-117869819D01*
X105579887Y-117869819D02*
X105484649Y-117822200D01*
X105484649Y-117822200D02*
X105437030Y-117774580D01*
X105437030Y-117774580D02*
X105389411Y-117679342D01*
X105389411Y-117679342D02*
X105389411Y-117584104D01*
X105389411Y-117584104D02*
X105437030Y-117488866D01*
X105437030Y-117488866D02*
X105484649Y-117441247D01*
X105484649Y-117441247D02*
X105579887Y-117393628D01*
X105579887Y-117393628D02*
X105770363Y-117346009D01*
X105770363Y-117346009D02*
X105865601Y-117298390D01*
X105865601Y-117298390D02*
X105913220Y-117250771D01*
X105913220Y-117250771D02*
X105960839Y-117155533D01*
X105960839Y-117155533D02*
X105960839Y-117060295D01*
X105960839Y-117060295D02*
X105913220Y-116965057D01*
X105913220Y-116965057D02*
X105865601Y-116917438D01*
X105865601Y-116917438D02*
X105770363Y-116869819D01*
X105770363Y-116869819D02*
X105532268Y-116869819D01*
X105532268Y-116869819D02*
X105389411Y-116917438D01*
X99889411Y-116917438D02*
X99984649Y-116869819D01*
X99984649Y-116869819D02*
X100127506Y-116869819D01*
X100127506Y-116869819D02*
X100270363Y-116917438D01*
X100270363Y-116917438D02*
X100365601Y-117012676D01*
X100365601Y-117012676D02*
X100413220Y-117107914D01*
X100413220Y-117107914D02*
X100460839Y-117298390D01*
X100460839Y-117298390D02*
X100460839Y-117441247D01*
X100460839Y-117441247D02*
X100413220Y-117631723D01*
X100413220Y-117631723D02*
X100365601Y-117726961D01*
X100365601Y-117726961D02*
X100270363Y-117822200D01*
X100270363Y-117822200D02*
X100127506Y-117869819D01*
X100127506Y-117869819D02*
X100032268Y-117869819D01*
X100032268Y-117869819D02*
X99889411Y-117822200D01*
X99889411Y-117822200D02*
X99841792Y-117774580D01*
X99841792Y-117774580D02*
X99841792Y-117441247D01*
X99841792Y-117441247D02*
X100032268Y-117441247D01*
X99413220Y-117869819D02*
X99413220Y-116869819D01*
X99413220Y-116869819D02*
X98841792Y-117869819D01*
X98841792Y-117869819D02*
X98841792Y-116869819D01*
X98365601Y-117869819D02*
X98365601Y-116869819D01*
X98365601Y-116869819D02*
X98127506Y-116869819D01*
X98127506Y-116869819D02*
X97984649Y-116917438D01*
X97984649Y-116917438D02*
X97889411Y-117012676D01*
X97889411Y-117012676D02*
X97841792Y-117107914D01*
X97841792Y-117107914D02*
X97794173Y-117298390D01*
X97794173Y-117298390D02*
X97794173Y-117441247D01*
X97794173Y-117441247D02*
X97841792Y-117631723D01*
X97841792Y-117631723D02*
X97889411Y-117726961D01*
X97889411Y-117726961D02*
X97984649Y-117822200D01*
X97984649Y-117822200D02*
X98127506Y-117869819D01*
X98127506Y-117869819D02*
X98365601Y-117869819D01*
X131460839Y-117822200D02*
X131317982Y-117869819D01*
X131317982Y-117869819D02*
X131079887Y-117869819D01*
X131079887Y-117869819D02*
X130984649Y-117822200D01*
X130984649Y-117822200D02*
X130937030Y-117774580D01*
X130937030Y-117774580D02*
X130889411Y-117679342D01*
X130889411Y-117679342D02*
X130889411Y-117584104D01*
X130889411Y-117584104D02*
X130937030Y-117488866D01*
X130937030Y-117488866D02*
X130984649Y-117441247D01*
X130984649Y-117441247D02*
X131079887Y-117393628D01*
X131079887Y-117393628D02*
X131270363Y-117346009D01*
X131270363Y-117346009D02*
X131365601Y-117298390D01*
X131365601Y-117298390D02*
X131413220Y-117250771D01*
X131413220Y-117250771D02*
X131460839Y-117155533D01*
X131460839Y-117155533D02*
X131460839Y-117060295D01*
X131460839Y-117060295D02*
X131413220Y-116965057D01*
X131413220Y-116965057D02*
X131365601Y-116917438D01*
X131365601Y-116917438D02*
X131270363Y-116869819D01*
X131270363Y-116869819D02*
X131032268Y-116869819D01*
X131032268Y-116869819D02*
X130889411Y-116917438D01*
M02*
