%TF.GenerationSoftware,KiCad,Pcbnew,9.0.6*%
%TF.CreationDate,2025-12-09T00:58:21-06:00*%
%TF.ProjectId,Mixed_Signal_generator_analyzer,4d697865-645f-4536-9967-6e616c5f6765,rev?*%
%TF.SameCoordinates,Original*%
%TF.FileFunction,Copper,L3,Inr*%
%TF.FilePolarity,Positive*%
%FSLAX46Y46*%
G04 Gerber Fmt 4.6, Leading zero omitted, Abs format (unit mm)*
G04 Created by KiCad (PCBNEW 9.0.6) date 2025-12-09 00:58:21*
%MOMM*%
%LPD*%
G01*
G04 APERTURE LIST*
%TA.AperFunction,HeatsinkPad*%
%ADD10O,2.100000X1.000000*%
%TD*%
%TA.AperFunction,HeatsinkPad*%
%ADD11O,1.600000X1.000000*%
%TD*%
%TA.AperFunction,ComponentPad*%
%ADD12R,1.400000X1.400000*%
%TD*%
%TA.AperFunction,ComponentPad*%
%ADD13C,1.400000*%
%TD*%
%TA.AperFunction,ComponentPad*%
%ADD14C,3.000000*%
%TD*%
%TA.AperFunction,ViaPad*%
%ADD15C,0.700000*%
%TD*%
%TA.AperFunction,ViaPad*%
%ADD16C,0.800000*%
%TD*%
G04 APERTURE END LIST*
D10*
%TO.N,unconnected-(J2-SHIELD-PadS1)_2*%
%TO.C,J2*%
X138080000Y-78770000D03*
D11*
%TO.N,unconnected-(J2-SHIELD-PadS1)_3*%
X142260000Y-78770000D03*
D10*
%TO.N,unconnected-(J2-SHIELD-PadS1)*%
X138080000Y-70130000D03*
D11*
%TO.N,unconnected-(J2-SHIELD-PadS1)_1*%
X142260000Y-70130000D03*
%TD*%
D12*
%TO.N,GND*%
%TO.C,J5*%
X127250000Y-117460000D03*
D13*
%TO.N,/DAC/OUT*%
X129790000Y-117460000D03*
D14*
%TO.N,GND*%
X122170000Y-122540000D03*
X132330000Y-122540000D03*
%TD*%
D12*
%TO.N,GND*%
%TO.C,J4*%
X101750000Y-117460000D03*
D13*
%TO.N,Net-(D8-A2)*%
X104290000Y-117460000D03*
D14*
%TO.N,GND*%
X96670000Y-122540000D03*
X106830000Y-122540000D03*
%TD*%
D15*
%TO.N,+3.3VA*%
X102400000Y-99850000D03*
X94000000Y-90950000D03*
X102500000Y-98350000D03*
X95480000Y-82270000D03*
X109450000Y-78350000D03*
%TO.N,GND*%
X106200000Y-61000000D03*
X108800000Y-75150000D03*
D16*
X132050000Y-71500000D03*
D15*
X112000000Y-94050000D03*
X110600000Y-94050000D03*
X135500000Y-64950000D03*
X112750000Y-110750000D03*
X100275000Y-95850000D03*
X112000000Y-96150000D03*
X114200000Y-65950000D03*
X116500000Y-116750000D03*
X126650000Y-93700000D03*
X110400000Y-78950000D03*
D16*
X135850000Y-77842104D03*
D15*
X139000000Y-86750000D03*
X102500000Y-101900000D03*
X94750000Y-102350000D03*
X106500000Y-94250000D03*
X133250000Y-67600000D03*
X136500000Y-86750000D03*
X102500000Y-97250000D03*
X111500000Y-114250000D03*
D16*
X133412500Y-81150000D03*
D15*
X126500000Y-111750000D03*
X91225000Y-96525000D03*
X94000000Y-64250000D03*
X100500000Y-106250000D03*
X127500000Y-82700000D03*
X106500000Y-91750000D03*
X100950000Y-51650000D03*
X131250000Y-76660000D03*
X124000000Y-66750000D03*
X119600000Y-56400000D03*
D16*
X135850000Y-71050000D03*
D15*
X113450000Y-72150000D03*
X96850000Y-92700000D03*
X136500000Y-89250000D03*
X136500000Y-101750000D03*
X129175000Y-93300000D03*
X111300000Y-51750000D03*
X109400000Y-70600000D03*
X114000000Y-119250000D03*
X125800000Y-71450000D03*
X124750000Y-77450000D03*
X98750000Y-58150000D03*
X86500000Y-104250000D03*
X105100000Y-100475000D03*
X107350000Y-75150000D03*
X139000000Y-89250000D03*
X101750000Y-75950000D03*
X92850000Y-61050000D03*
X111500000Y-116750000D03*
X121200000Y-51775000D03*
X138250000Y-80750000D03*
X121500000Y-111750000D03*
X113300000Y-95050000D03*
X131500000Y-62800000D03*
X111875000Y-66800000D03*
X139000000Y-104250000D03*
X111500000Y-91750000D03*
X131150000Y-100100000D03*
X90500000Y-67000000D03*
X128150000Y-65250000D03*
X93600000Y-51350000D03*
X108500000Y-52950000D03*
D16*
X100600000Y-81450000D03*
D15*
X102775000Y-61000000D03*
X110000000Y-52950000D03*
X117750000Y-72200000D03*
X116500000Y-114250000D03*
X89000000Y-109250000D03*
X115000000Y-73500000D03*
X96500000Y-76750000D03*
X121500000Y-94250000D03*
X87855000Y-85650000D03*
X121500000Y-99250000D03*
X89000000Y-106750000D03*
X101400000Y-94559999D03*
X86500000Y-109250000D03*
X94000000Y-66750000D03*
X91500000Y-104250000D03*
X104750000Y-51650000D03*
X95550000Y-92350000D03*
X134600000Y-93000000D03*
D16*
X100600000Y-83100000D03*
D15*
X139050000Y-65900000D03*
X91500000Y-106750000D03*
X104000000Y-91750000D03*
X110600000Y-95050000D03*
X99225000Y-61000000D03*
X116500000Y-119250000D03*
X111500000Y-119250000D03*
D16*
X131612500Y-81150000D03*
D15*
X113300000Y-94050000D03*
X102950000Y-106925000D03*
X133500000Y-104000000D03*
X121500000Y-96750000D03*
X109000000Y-89250000D03*
X117550000Y-89400000D03*
X118500000Y-64800000D03*
X141500000Y-101750000D03*
X139000000Y-91750000D03*
X141500000Y-86750000D03*
D16*
X136150000Y-78942104D03*
D15*
X102125000Y-69175000D03*
D16*
X136150000Y-69950000D03*
D15*
X91950000Y-84550000D03*
X136500000Y-104250000D03*
X124000000Y-109250000D03*
X103900000Y-77500000D03*
X124250000Y-80600000D03*
X124000000Y-69250000D03*
X103500000Y-51650000D03*
X96500000Y-64250000D03*
X95000000Y-56250000D03*
X114000000Y-55900000D03*
X138250000Y-68250000D03*
X132710000Y-73990000D03*
X112500000Y-108000000D03*
X109000000Y-91750000D03*
X127225000Y-88625000D03*
X91225000Y-97325000D03*
X141500000Y-106750000D03*
X132850000Y-94050000D03*
X138300000Y-62950000D03*
X104525000Y-71975000D03*
X111300000Y-53750000D03*
X131500000Y-105000000D03*
X136500000Y-106750000D03*
X131250000Y-97750000D03*
X121750000Y-59250000D03*
X129200000Y-70300000D03*
X105075000Y-107000000D03*
X120200000Y-70800000D03*
X124000000Y-94250000D03*
X96850000Y-91950000D03*
X139000000Y-106750000D03*
X104000000Y-94250000D03*
X91500000Y-76750000D03*
X124800000Y-104975000D03*
X124000000Y-59250000D03*
X87400000Y-65850000D03*
X103900000Y-75950000D03*
X127400000Y-64750000D03*
X114000000Y-116750000D03*
X134300000Y-64950000D03*
X97080000Y-54900000D03*
X137150000Y-60750000D03*
X89000000Y-104250000D03*
X95750000Y-101750000D03*
X103500000Y-99850000D03*
X121750000Y-56750000D03*
X118000000Y-109025000D03*
X96500000Y-66750000D03*
X136500000Y-91750000D03*
X139000000Y-101750000D03*
X101100000Y-113250000D03*
X124000000Y-62000000D03*
X112000000Y-95050000D03*
X110600000Y-96150000D03*
X97175000Y-88022794D03*
X91500000Y-109250000D03*
X121200000Y-53700000D03*
X108800000Y-85150000D03*
X95700000Y-58250000D03*
X118400000Y-72750000D03*
X124000000Y-96750000D03*
X92900000Y-90950000D03*
X130250000Y-62800000D03*
X111500000Y-89250000D03*
X124000000Y-64250000D03*
X112100000Y-70550000D03*
X94000000Y-76750000D03*
X121500000Y-109250000D03*
X124000000Y-111750000D03*
X118000000Y-77750000D03*
X126500000Y-109250000D03*
X141500000Y-91750000D03*
X124000000Y-99250000D03*
X94350000Y-82250000D03*
X128450000Y-84750000D03*
X126150000Y-113250000D03*
X124000000Y-56750000D03*
X114000000Y-114250000D03*
X141500000Y-89250000D03*
X141500000Y-104250000D03*
X86500000Y-106750000D03*
%TO.N,+5V*%
X130150000Y-76850000D03*
X91950000Y-85650000D03*
X129000000Y-71400000D03*
X116450000Y-89400000D03*
%TO.N,+3.3V*%
X109950000Y-79950000D03*
X121300000Y-70800000D03*
X109950000Y-85150000D03*
X92500000Y-51500000D03*
X109950000Y-54050000D03*
X137000000Y-61850000D03*
X133250000Y-66500000D03*
X120325000Y-82450000D03*
X118500000Y-56400000D03*
X138300000Y-61850000D03*
X88500000Y-65850000D03*
X112750000Y-67600000D03*
X124700000Y-71450000D03*
%TO.N,/MCU/NRST*%
X111250000Y-71250000D03*
X113500000Y-73250000D03*
D16*
%TO.N,SPI1_NSS*%
X101600000Y-81450000D03*
X101600000Y-83100000D03*
D15*
%TO.N,/MCU/TIM4_CH1*%
X105000000Y-77610003D03*
X117000000Y-73000000D03*
%TO.N,/MCU/BOOT0*%
X117750000Y-64000000D03*
X115000000Y-66750000D03*
%TO.N,/MCU/TIM4_CH2*%
X102500000Y-76750000D03*
X116000000Y-73000000D03*
%TO.N,/MCU/TIM4_CH3*%
X114298492Y-72619397D03*
X105000000Y-75750000D03*
%TO.N,SPI2_NSS*%
X125500000Y-78250000D03*
X124250000Y-79500000D03*
%TO.N,DAC_NLDAC*%
X128250000Y-83500000D03*
X133500000Y-93000000D03*
%TO.N,DAC_NCLR*%
X129250000Y-85500000D03*
X131750000Y-94000000D03*
%TD*%
%TA.AperFunction,Conductor*%
%TO.N,GND*%
G36*
X91787013Y-50930462D02*
G01*
X91841551Y-50985000D01*
X91861513Y-51059500D01*
X91841551Y-51134000D01*
X91836404Y-51142278D01*
X91834916Y-51144504D01*
X91778341Y-51281088D01*
X91749500Y-51426078D01*
X91749500Y-51573921D01*
X91778341Y-51718911D01*
X91834916Y-51855497D01*
X91900532Y-51953697D01*
X91917049Y-51978416D01*
X92021584Y-52082951D01*
X92070685Y-52115759D01*
X92144502Y-52165083D01*
X92175444Y-52177899D01*
X92281087Y-52221658D01*
X92426082Y-52250500D01*
X92426086Y-52250500D01*
X92573914Y-52250500D01*
X92573918Y-52250500D01*
X92718913Y-52221658D01*
X92855495Y-52165084D01*
X92855495Y-52165083D01*
X92855497Y-52165083D01*
X92893784Y-52139500D01*
X92978416Y-52082951D01*
X93082951Y-51978416D01*
X93165084Y-51855495D01*
X93221658Y-51718913D01*
X93250500Y-51573918D01*
X93250500Y-51426082D01*
X93221658Y-51281087D01*
X93165084Y-51144505D01*
X93163596Y-51142278D01*
X93163077Y-51140750D01*
X93161631Y-51138044D01*
X93162077Y-51137805D01*
X93138806Y-51069242D01*
X93153854Y-50993596D01*
X93204709Y-50935609D01*
X93277745Y-50910819D01*
X93287487Y-50910500D01*
X139963367Y-50910500D01*
X139996095Y-50910500D01*
X140003892Y-50910703D01*
X140341275Y-50928385D01*
X140356780Y-50930014D01*
X140686612Y-50982255D01*
X140701867Y-50985498D01*
X141024422Y-51071926D01*
X141039239Y-51076740D01*
X141351015Y-51196419D01*
X141365252Y-51202758D01*
X141518980Y-51281087D01*
X141662794Y-51354364D01*
X141676300Y-51362162D01*
X141774735Y-51426086D01*
X141956361Y-51544036D01*
X141968969Y-51553196D01*
X142173611Y-51718911D01*
X142228495Y-51763355D01*
X142240085Y-51773791D01*
X142476208Y-52009914D01*
X142486644Y-52021504D01*
X142692561Y-52275791D01*
X142696800Y-52281025D01*
X142705967Y-52293643D01*
X142887837Y-52573699D01*
X142895635Y-52587205D01*
X143047238Y-52884742D01*
X143053582Y-52898990D01*
X143173256Y-53210752D01*
X143178075Y-53225585D01*
X143264501Y-53548132D01*
X143267744Y-53563387D01*
X143319984Y-53893216D01*
X143321614Y-53908727D01*
X143339296Y-54246107D01*
X143339500Y-54253905D01*
X143339500Y-69289063D01*
X143319538Y-69363563D01*
X143265000Y-69418101D01*
X143190500Y-69438063D01*
X143116000Y-69418101D01*
X143107720Y-69412952D01*
X142986549Y-69331987D01*
X142986546Y-69331986D01*
X142822667Y-69264106D01*
X142822663Y-69264105D01*
X142648691Y-69229500D01*
X141871309Y-69229500D01*
X141697336Y-69264105D01*
X141697332Y-69264106D01*
X141533453Y-69331986D01*
X141533451Y-69331987D01*
X141385968Y-69430533D01*
X141385963Y-69430537D01*
X141260537Y-69555963D01*
X141260533Y-69555968D01*
X141161987Y-69703451D01*
X141161986Y-69703453D01*
X141094106Y-69867332D01*
X141094105Y-69867336D01*
X141059500Y-70041308D01*
X141059500Y-70218691D01*
X141094105Y-70392663D01*
X141094106Y-70392667D01*
X141161986Y-70556546D01*
X141161987Y-70556548D01*
X141260533Y-70704031D01*
X141260536Y-70704035D01*
X141385965Y-70829464D01*
X141385968Y-70829466D01*
X141533451Y-70928012D01*
X141533453Y-70928013D01*
X141697334Y-70995894D01*
X141871309Y-71030500D01*
X142648691Y-71030500D01*
X142822666Y-70995894D01*
X142986547Y-70928013D01*
X143107719Y-70847048D01*
X143180754Y-70822255D01*
X143256400Y-70837302D01*
X143314388Y-70888155D01*
X143339181Y-70961190D01*
X143339500Y-70970936D01*
X143339500Y-77929063D01*
X143319538Y-78003563D01*
X143265000Y-78058101D01*
X143190500Y-78078063D01*
X143116000Y-78058101D01*
X143107720Y-78052952D01*
X142986549Y-77971987D01*
X142986546Y-77971986D01*
X142822667Y-77904106D01*
X142822663Y-77904105D01*
X142648691Y-77869500D01*
X141871309Y-77869500D01*
X141697336Y-77904105D01*
X141697332Y-77904106D01*
X141533453Y-77971986D01*
X141533451Y-77971987D01*
X141385968Y-78070533D01*
X141385963Y-78070537D01*
X141260537Y-78195963D01*
X141260533Y-78195968D01*
X141161987Y-78343451D01*
X141161986Y-78343453D01*
X141094106Y-78507332D01*
X141094105Y-78507336D01*
X141059500Y-78681308D01*
X141059500Y-78858691D01*
X141094105Y-79032663D01*
X141094106Y-79032667D01*
X141161986Y-79196546D01*
X141161987Y-79196548D01*
X141247149Y-79324000D01*
X141260536Y-79344035D01*
X141385965Y-79469464D01*
X141385968Y-79469466D01*
X141533451Y-79568012D01*
X141533453Y-79568013D01*
X141697334Y-79635894D01*
X141871309Y-79670500D01*
X142648691Y-79670500D01*
X142822666Y-79635894D01*
X142986547Y-79568013D01*
X143107719Y-79487048D01*
X143180754Y-79462255D01*
X143256400Y-79477302D01*
X143314388Y-79528155D01*
X143339181Y-79601190D01*
X143339500Y-79610936D01*
X143339500Y-127496094D01*
X143339296Y-127503892D01*
X143321614Y-127841272D01*
X143319984Y-127856783D01*
X143267744Y-128186612D01*
X143264501Y-128201867D01*
X143178075Y-128524414D01*
X143173256Y-128539247D01*
X143053582Y-128851009D01*
X143047238Y-128865257D01*
X142895635Y-129162794D01*
X142887837Y-129176300D01*
X142705967Y-129456356D01*
X142696800Y-129468974D01*
X142486644Y-129728495D01*
X142476208Y-129740085D01*
X142240085Y-129976208D01*
X142228495Y-129986644D01*
X141968974Y-130196800D01*
X141956356Y-130205967D01*
X141676300Y-130387837D01*
X141662794Y-130395635D01*
X141365257Y-130547238D01*
X141351009Y-130553582D01*
X141039247Y-130673256D01*
X141024414Y-130678075D01*
X140701867Y-130764501D01*
X140686612Y-130767744D01*
X140356783Y-130819984D01*
X140341272Y-130821614D01*
X140003893Y-130839296D01*
X139996095Y-130839500D01*
X89003905Y-130839500D01*
X88996107Y-130839296D01*
X88658727Y-130821614D01*
X88643216Y-130819984D01*
X88313387Y-130767744D01*
X88298132Y-130764501D01*
X87975585Y-130678075D01*
X87960752Y-130673256D01*
X87648990Y-130553582D01*
X87634742Y-130547238D01*
X87337205Y-130395635D01*
X87323699Y-130387837D01*
X87043643Y-130205967D01*
X87031025Y-130196800D01*
X86771504Y-129986644D01*
X86759914Y-129976208D01*
X86523791Y-129740085D01*
X86513355Y-129728495D01*
X86303199Y-129468974D01*
X86294032Y-129456356D01*
X86247136Y-129384143D01*
X86112162Y-129176300D01*
X86104364Y-129162794D01*
X85952761Y-128865257D01*
X85946417Y-128851009D01*
X85876225Y-128668151D01*
X85826740Y-128539239D01*
X85821926Y-128524422D01*
X85735498Y-128201867D01*
X85732255Y-128186612D01*
X85680015Y-127856783D01*
X85678385Y-127841272D01*
X85660704Y-127503892D01*
X85660500Y-127496094D01*
X85660500Y-127400796D01*
X87739500Y-127400796D01*
X87739500Y-127599204D01*
X87770537Y-127795167D01*
X87831847Y-127983860D01*
X87831851Y-127983869D01*
X87921924Y-128160649D01*
X88038541Y-128321157D01*
X88038544Y-128321161D01*
X88178839Y-128461456D01*
X88178842Y-128461458D01*
X88339350Y-128578075D01*
X88339354Y-128578077D01*
X88516136Y-128668151D01*
X88704832Y-128729463D01*
X88900796Y-128760500D01*
X88900801Y-128760500D01*
X89099199Y-128760500D01*
X89099204Y-128760500D01*
X89295168Y-128729463D01*
X89483864Y-128668151D01*
X89660646Y-128578077D01*
X89821161Y-128461456D01*
X89961456Y-128321161D01*
X90078077Y-128160646D01*
X90168151Y-127983864D01*
X90229463Y-127795168D01*
X90260500Y-127599204D01*
X90260500Y-127400796D01*
X138739500Y-127400796D01*
X138739500Y-127599204D01*
X138770537Y-127795167D01*
X138831847Y-127983860D01*
X138831851Y-127983869D01*
X138921924Y-128160649D01*
X139038541Y-128321157D01*
X139038544Y-128321161D01*
X139178839Y-128461456D01*
X139178842Y-128461458D01*
X139339350Y-128578075D01*
X139339354Y-128578077D01*
X139516136Y-128668151D01*
X139704832Y-128729463D01*
X139900796Y-128760500D01*
X139900801Y-128760500D01*
X140099199Y-128760500D01*
X140099204Y-128760500D01*
X140295168Y-128729463D01*
X140483864Y-128668151D01*
X140660646Y-128578077D01*
X140821161Y-128461456D01*
X140961456Y-128321161D01*
X141078077Y-128160646D01*
X141168151Y-127983864D01*
X141229463Y-127795168D01*
X141260500Y-127599204D01*
X141260500Y-127400796D01*
X141229463Y-127204832D01*
X141168151Y-127016136D01*
X141078077Y-126839354D01*
X141078075Y-126839350D01*
X140961458Y-126678842D01*
X140961456Y-126678839D01*
X140821161Y-126538544D01*
X140821157Y-126538541D01*
X140660649Y-126421924D01*
X140483869Y-126331851D01*
X140483860Y-126331847D01*
X140354969Y-126289967D01*
X140295168Y-126270537D01*
X140099204Y-126239500D01*
X139900796Y-126239500D01*
X139704832Y-126270537D01*
X139516139Y-126331847D01*
X139516130Y-126331851D01*
X139339350Y-126421924D01*
X139178842Y-126538541D01*
X139038541Y-126678842D01*
X138921924Y-126839350D01*
X138831851Y-127016130D01*
X138831847Y-127016139D01*
X138770537Y-127204832D01*
X138739500Y-127400796D01*
X90260500Y-127400796D01*
X90229463Y-127204832D01*
X90168151Y-127016136D01*
X90078077Y-126839354D01*
X90078075Y-126839350D01*
X89961458Y-126678842D01*
X89961456Y-126678839D01*
X89821161Y-126538544D01*
X89821157Y-126538541D01*
X89660649Y-126421924D01*
X89483869Y-126331851D01*
X89483860Y-126331847D01*
X89354969Y-126289967D01*
X89295168Y-126270537D01*
X89099204Y-126239500D01*
X88900796Y-126239500D01*
X88704832Y-126270537D01*
X88516139Y-126331847D01*
X88516130Y-126331851D01*
X88339350Y-126421924D01*
X88178842Y-126538541D01*
X88038541Y-126678842D01*
X87921924Y-126839350D01*
X87831851Y-127016130D01*
X87831847Y-127016139D01*
X87770537Y-127204832D01*
X87739500Y-127400796D01*
X85660500Y-127400796D01*
X85660500Y-122408907D01*
X94670000Y-122408907D01*
X94670000Y-122671092D01*
X94704218Y-122931007D01*
X94704219Y-122931012D01*
X94772074Y-123184254D01*
X94772074Y-123184255D01*
X94872408Y-123426479D01*
X95003492Y-123653522D01*
X95090079Y-123766365D01*
X95807425Y-123049018D01*
X95893249Y-123177463D01*
X96032537Y-123316751D01*
X96160979Y-123402573D01*
X95443633Y-124119920D01*
X95556477Y-124206507D01*
X95783520Y-124337591D01*
X96025744Y-124437925D01*
X96278987Y-124505780D01*
X96278992Y-124505781D01*
X96538907Y-124539999D01*
X96538911Y-124540000D01*
X96801089Y-124540000D01*
X96801092Y-124539999D01*
X97061007Y-124505781D01*
X97061012Y-124505780D01*
X97314254Y-124437925D01*
X97314255Y-124437925D01*
X97556479Y-124337591D01*
X97783526Y-124206505D01*
X97783528Y-124206504D01*
X97896366Y-124119920D01*
X97179020Y-123402574D01*
X97307463Y-123316751D01*
X97446751Y-123177463D01*
X97532574Y-123049019D01*
X98249920Y-123766365D01*
X98336504Y-123653528D01*
X98336505Y-123653526D01*
X98467591Y-123426479D01*
X98567925Y-123184255D01*
X98567925Y-123184254D01*
X98635780Y-122931012D01*
X98635781Y-122931007D01*
X98669999Y-122671092D01*
X98670000Y-122671088D01*
X98670000Y-122408911D01*
X98669999Y-122408907D01*
X104830000Y-122408907D01*
X104830000Y-122671092D01*
X104864218Y-122931007D01*
X104864219Y-122931012D01*
X104932074Y-123184254D01*
X104932074Y-123184255D01*
X105032408Y-123426479D01*
X105163492Y-123653522D01*
X105250079Y-123766365D01*
X105967425Y-123049018D01*
X106053249Y-123177463D01*
X106192537Y-123316751D01*
X106320979Y-123402573D01*
X105603633Y-124119920D01*
X105716477Y-124206507D01*
X105943520Y-124337591D01*
X106185744Y-124437925D01*
X106438987Y-124505780D01*
X106438992Y-124505781D01*
X106698907Y-124539999D01*
X106698911Y-124540000D01*
X106961089Y-124540000D01*
X106961092Y-124539999D01*
X107221007Y-124505781D01*
X107221012Y-124505780D01*
X107474254Y-124437925D01*
X107474255Y-124437925D01*
X107716479Y-124337591D01*
X107943526Y-124206505D01*
X107943528Y-124206504D01*
X108056366Y-124119920D01*
X107339020Y-123402574D01*
X107467463Y-123316751D01*
X107606751Y-123177463D01*
X107692574Y-123049019D01*
X108409920Y-123766365D01*
X108496504Y-123653528D01*
X108496505Y-123653526D01*
X108627591Y-123426479D01*
X108727925Y-123184255D01*
X108727925Y-123184254D01*
X108795780Y-122931012D01*
X108795781Y-122931007D01*
X108829999Y-122671092D01*
X108830000Y-122671088D01*
X108830000Y-122408911D01*
X108829999Y-122408907D01*
X120170000Y-122408907D01*
X120170000Y-122671092D01*
X120204218Y-122931007D01*
X120204219Y-122931012D01*
X120272074Y-123184254D01*
X120272074Y-123184255D01*
X120372408Y-123426479D01*
X120503492Y-123653522D01*
X120590079Y-123766365D01*
X121307425Y-123049018D01*
X121393249Y-123177463D01*
X121532537Y-123316751D01*
X121660979Y-123402573D01*
X120943633Y-124119920D01*
X121056477Y-124206507D01*
X121283520Y-124337591D01*
X121525744Y-124437925D01*
X121778987Y-124505780D01*
X121778992Y-124505781D01*
X122038907Y-124539999D01*
X122038911Y-124540000D01*
X122301089Y-124540000D01*
X122301092Y-124539999D01*
X122561007Y-124505781D01*
X122561012Y-124505780D01*
X122814254Y-124437925D01*
X122814255Y-124437925D01*
X123056479Y-124337591D01*
X123283526Y-124206505D01*
X123283528Y-124206504D01*
X123396366Y-124119920D01*
X122679020Y-123402574D01*
X122807463Y-123316751D01*
X122946751Y-123177463D01*
X123032574Y-123049019D01*
X123749920Y-123766365D01*
X123836504Y-123653528D01*
X123836505Y-123653526D01*
X123967591Y-123426479D01*
X124067925Y-123184255D01*
X124067925Y-123184254D01*
X124135780Y-122931012D01*
X124135781Y-122931007D01*
X124169999Y-122671092D01*
X124170000Y-122671088D01*
X124170000Y-122408911D01*
X124169999Y-122408907D01*
X130330000Y-122408907D01*
X130330000Y-122671092D01*
X130364218Y-122931007D01*
X130364219Y-122931012D01*
X130432074Y-123184254D01*
X130432074Y-123184255D01*
X130532408Y-123426479D01*
X130663492Y-123653522D01*
X130750079Y-123766365D01*
X131467425Y-123049018D01*
X131553249Y-123177463D01*
X131692537Y-123316751D01*
X131820979Y-123402573D01*
X131103633Y-124119920D01*
X131216477Y-124206507D01*
X131443520Y-124337591D01*
X131685744Y-124437925D01*
X131938987Y-124505780D01*
X131938992Y-124505781D01*
X132198907Y-124539999D01*
X132198911Y-124540000D01*
X132461089Y-124540000D01*
X132461092Y-124539999D01*
X132721007Y-124505781D01*
X132721012Y-124505780D01*
X132974254Y-124437925D01*
X132974255Y-124437925D01*
X133216479Y-124337591D01*
X133443526Y-124206505D01*
X133443528Y-124206504D01*
X133556366Y-124119920D01*
X132839020Y-123402574D01*
X132967463Y-123316751D01*
X133106751Y-123177463D01*
X133192574Y-123049019D01*
X133909920Y-123766365D01*
X133996504Y-123653528D01*
X133996505Y-123653526D01*
X134127591Y-123426479D01*
X134227925Y-123184255D01*
X134227925Y-123184254D01*
X134295780Y-122931012D01*
X134295781Y-122931007D01*
X134329999Y-122671092D01*
X134330000Y-122671088D01*
X134330000Y-122408911D01*
X134329999Y-122408907D01*
X134295781Y-122148992D01*
X134295780Y-122148987D01*
X134227925Y-121895745D01*
X134227925Y-121895744D01*
X134127591Y-121653520D01*
X133996507Y-121426477D01*
X133909920Y-121313633D01*
X133192573Y-122030979D01*
X133106751Y-121902537D01*
X132967463Y-121763249D01*
X132839018Y-121677425D01*
X133556365Y-120960079D01*
X133443522Y-120873492D01*
X133216479Y-120742408D01*
X132974255Y-120642074D01*
X132721012Y-120574219D01*
X132721007Y-120574218D01*
X132461092Y-120540000D01*
X132198907Y-120540000D01*
X131938992Y-120574218D01*
X131938987Y-120574219D01*
X131685745Y-120642074D01*
X131685744Y-120642074D01*
X131443520Y-120742408D01*
X131216472Y-120873495D01*
X131103633Y-120960078D01*
X131103633Y-120960079D01*
X131820979Y-121677425D01*
X131692537Y-121763249D01*
X131553249Y-121902537D01*
X131467425Y-122030979D01*
X130750079Y-121313633D01*
X130750078Y-121313633D01*
X130663495Y-121426472D01*
X130532408Y-121653520D01*
X130432074Y-121895744D01*
X130432074Y-121895745D01*
X130364219Y-122148987D01*
X130364218Y-122148992D01*
X130330000Y-122408907D01*
X124169999Y-122408907D01*
X124135781Y-122148992D01*
X124135780Y-122148987D01*
X124067925Y-121895745D01*
X124067925Y-121895744D01*
X123967591Y-121653520D01*
X123836507Y-121426477D01*
X123749920Y-121313633D01*
X123032573Y-122030979D01*
X122946751Y-121902537D01*
X122807463Y-121763249D01*
X122679018Y-121677425D01*
X123396365Y-120960079D01*
X123283522Y-120873492D01*
X123056479Y-120742408D01*
X122814255Y-120642074D01*
X122561012Y-120574219D01*
X122561007Y-120574218D01*
X122301092Y-120540000D01*
X122038907Y-120540000D01*
X121778992Y-120574218D01*
X121778987Y-120574219D01*
X121525745Y-120642074D01*
X121525744Y-120642074D01*
X121283520Y-120742408D01*
X121056472Y-120873495D01*
X120943633Y-120960078D01*
X120943633Y-120960079D01*
X121660979Y-121677425D01*
X121532537Y-121763249D01*
X121393249Y-121902537D01*
X121307425Y-122030979D01*
X120590079Y-121313633D01*
X120590078Y-121313633D01*
X120503495Y-121426472D01*
X120372408Y-121653520D01*
X120272074Y-121895744D01*
X120272074Y-121895745D01*
X120204219Y-122148987D01*
X120204218Y-122148992D01*
X120170000Y-122408907D01*
X108829999Y-122408907D01*
X108795781Y-122148992D01*
X108795780Y-122148987D01*
X108727925Y-121895745D01*
X108727925Y-121895744D01*
X108627591Y-121653520D01*
X108496507Y-121426477D01*
X108409920Y-121313633D01*
X107692573Y-122030979D01*
X107606751Y-121902537D01*
X107467463Y-121763249D01*
X107339018Y-121677425D01*
X108056365Y-120960079D01*
X107943522Y-120873492D01*
X107716479Y-120742408D01*
X107474255Y-120642074D01*
X107221012Y-120574219D01*
X107221007Y-120574218D01*
X106961092Y-120540000D01*
X106698907Y-120540000D01*
X106438992Y-120574218D01*
X106438987Y-120574219D01*
X106185745Y-120642074D01*
X106185744Y-120642074D01*
X105943520Y-120742408D01*
X105716472Y-120873495D01*
X105603633Y-120960078D01*
X105603633Y-120960079D01*
X106320979Y-121677425D01*
X106192537Y-121763249D01*
X106053249Y-121902537D01*
X105967425Y-122030979D01*
X105250079Y-121313633D01*
X105250078Y-121313633D01*
X105163495Y-121426472D01*
X105032408Y-121653520D01*
X104932074Y-121895744D01*
X104932074Y-121895745D01*
X104864219Y-122148987D01*
X104864218Y-122148992D01*
X104830000Y-122408907D01*
X98669999Y-122408907D01*
X98635781Y-122148992D01*
X98635780Y-122148987D01*
X98567925Y-121895745D01*
X98567925Y-121895744D01*
X98467591Y-121653520D01*
X98336507Y-121426477D01*
X98249920Y-121313633D01*
X97532573Y-122030979D01*
X97446751Y-121902537D01*
X97307463Y-121763249D01*
X97179018Y-121677425D01*
X97896365Y-120960079D01*
X97783522Y-120873492D01*
X97556479Y-120742408D01*
X97314255Y-120642074D01*
X97061012Y-120574219D01*
X97061007Y-120574218D01*
X96801092Y-120540000D01*
X96538907Y-120540000D01*
X96278992Y-120574218D01*
X96278987Y-120574219D01*
X96025745Y-120642074D01*
X96025744Y-120642074D01*
X95783520Y-120742408D01*
X95556472Y-120873495D01*
X95443633Y-120960078D01*
X95443633Y-120960079D01*
X96160979Y-121677425D01*
X96032537Y-121763249D01*
X95893249Y-121902537D01*
X95807425Y-122030979D01*
X95090079Y-121313633D01*
X95090078Y-121313633D01*
X95003495Y-121426472D01*
X94872408Y-121653520D01*
X94772074Y-121895744D01*
X94772074Y-121895745D01*
X94704219Y-122148987D01*
X94704218Y-122148992D01*
X94670000Y-122408907D01*
X85660500Y-122408907D01*
X85660500Y-116712177D01*
X100550000Y-116712177D01*
X100550000Y-117210000D01*
X101374722Y-117210000D01*
X101330667Y-117286306D01*
X101300000Y-117400756D01*
X101300000Y-117519244D01*
X101330667Y-117633694D01*
X101374722Y-117710000D01*
X100550000Y-117710000D01*
X100550000Y-118207822D01*
X100550001Y-118207842D01*
X100556401Y-118267377D01*
X100606645Y-118402084D01*
X100606650Y-118402094D01*
X100692809Y-118517187D01*
X100692812Y-118517190D01*
X100807905Y-118603349D01*
X100807915Y-118603354D01*
X100942623Y-118653598D01*
X100942621Y-118653598D01*
X101002157Y-118659998D01*
X101002177Y-118660000D01*
X101500000Y-118660000D01*
X101500000Y-117835277D01*
X101576306Y-117879333D01*
X101690756Y-117910000D01*
X101809244Y-117910000D01*
X101923694Y-117879333D01*
X102000000Y-117835277D01*
X102000000Y-118660000D01*
X102497823Y-118660000D01*
X102497842Y-118659998D01*
X102557377Y-118653598D01*
X102692084Y-118603354D01*
X102692094Y-118603349D01*
X102807187Y-118517190D01*
X102807190Y-118517187D01*
X102893349Y-118402094D01*
X102893354Y-118402084D01*
X102943598Y-118267377D01*
X102949998Y-118207842D01*
X102950000Y-118207822D01*
X102950000Y-117837943D01*
X102969962Y-117763443D01*
X103024500Y-117708905D01*
X103099000Y-117688943D01*
X103173500Y-117708905D01*
X103228038Y-117763443D01*
X103240705Y-117791895D01*
X103270127Y-117882445D01*
X103270130Y-117882450D01*
X103348771Y-118036793D01*
X103450583Y-118176924D01*
X103450586Y-118176928D01*
X103573072Y-118299414D01*
X103713212Y-118401232D01*
X103867555Y-118479873D01*
X104032299Y-118533402D01*
X104203389Y-118560500D01*
X104203393Y-118560500D01*
X104376607Y-118560500D01*
X104376611Y-118560500D01*
X104547701Y-118533402D01*
X104712445Y-118479873D01*
X104866788Y-118401232D01*
X105006928Y-118299414D01*
X105129414Y-118176928D01*
X105231232Y-118036788D01*
X105309873Y-117882445D01*
X105363402Y-117717701D01*
X105390500Y-117546611D01*
X105390500Y-117373389D01*
X105363402Y-117202299D01*
X105309873Y-117037555D01*
X105231232Y-116883212D01*
X105129414Y-116743072D01*
X105098519Y-116712177D01*
X126050000Y-116712177D01*
X126050000Y-117210000D01*
X126874722Y-117210000D01*
X126830667Y-117286306D01*
X126800000Y-117400756D01*
X126800000Y-117519244D01*
X126830667Y-117633694D01*
X126874722Y-117710000D01*
X126050000Y-117710000D01*
X126050000Y-118207822D01*
X126050001Y-118207842D01*
X126056401Y-118267377D01*
X126106645Y-118402084D01*
X126106650Y-118402094D01*
X126192809Y-118517187D01*
X126192812Y-118517190D01*
X126307905Y-118603349D01*
X126307915Y-118603354D01*
X126442623Y-118653598D01*
X126442621Y-118653598D01*
X126502157Y-118659998D01*
X126502177Y-118660000D01*
X127000000Y-118660000D01*
X127000000Y-117835277D01*
X127076306Y-117879333D01*
X127190756Y-117910000D01*
X127309244Y-117910000D01*
X127423694Y-117879333D01*
X127500000Y-117835277D01*
X127500000Y-118660000D01*
X127997823Y-118660000D01*
X127997842Y-118659998D01*
X128057377Y-118653598D01*
X128192084Y-118603354D01*
X128192094Y-118603349D01*
X128307187Y-118517190D01*
X128307190Y-118517187D01*
X128393349Y-118402094D01*
X128393354Y-118402084D01*
X128443598Y-118267377D01*
X128449998Y-118207842D01*
X128450000Y-118207822D01*
X128450000Y-117837943D01*
X128469962Y-117763443D01*
X128524500Y-117708905D01*
X128599000Y-117688943D01*
X128673500Y-117708905D01*
X128728038Y-117763443D01*
X128740705Y-117791895D01*
X128770127Y-117882445D01*
X128770130Y-117882450D01*
X128848771Y-118036793D01*
X128950583Y-118176924D01*
X128950586Y-118176928D01*
X129073072Y-118299414D01*
X129213212Y-118401232D01*
X129367555Y-118479873D01*
X129532299Y-118533402D01*
X129703389Y-118560500D01*
X129703393Y-118560500D01*
X129876607Y-118560500D01*
X129876611Y-118560500D01*
X130047701Y-118533402D01*
X130212445Y-118479873D01*
X130366788Y-118401232D01*
X130506928Y-118299414D01*
X130629414Y-118176928D01*
X130731232Y-118036788D01*
X130809873Y-117882445D01*
X130863402Y-117717701D01*
X130890500Y-117546611D01*
X130890500Y-117373389D01*
X130863402Y-117202299D01*
X130809873Y-117037555D01*
X130731232Y-116883212D01*
X130629414Y-116743072D01*
X130506928Y-116620586D01*
X130506924Y-116620583D01*
X130366793Y-116518771D01*
X130366790Y-116518769D01*
X130366788Y-116518768D01*
X130212445Y-116440127D01*
X130164821Y-116424653D01*
X130047700Y-116386597D01*
X129950086Y-116371137D01*
X129876611Y-116359500D01*
X129703389Y-116359500D01*
X129637037Y-116370009D01*
X129532299Y-116386597D01*
X129367561Y-116440125D01*
X129367555Y-116440127D01*
X129367549Y-116440129D01*
X129367549Y-116440130D01*
X129213206Y-116518771D01*
X129073075Y-116620583D01*
X128950583Y-116743075D01*
X128848771Y-116883206D01*
X128848768Y-116883212D01*
X128770127Y-117037555D01*
X128749867Y-117099910D01*
X128740707Y-117128100D01*
X128698700Y-117192785D01*
X128629978Y-117227800D01*
X128552956Y-117223763D01*
X128488271Y-117181756D01*
X128453256Y-117113034D01*
X128450000Y-117082056D01*
X128450000Y-116712177D01*
X128449998Y-116712157D01*
X128443598Y-116652622D01*
X128393354Y-116517915D01*
X128393349Y-116517905D01*
X128307190Y-116402812D01*
X128307187Y-116402809D01*
X128192094Y-116316650D01*
X128192084Y-116316645D01*
X128057376Y-116266401D01*
X128057378Y-116266401D01*
X127997842Y-116260001D01*
X127997823Y-116260000D01*
X127500000Y-116260000D01*
X127500000Y-117084722D01*
X127423694Y-117040667D01*
X127309244Y-117010000D01*
X127190756Y-117010000D01*
X127076306Y-117040667D01*
X127000000Y-117084722D01*
X127000000Y-116260000D01*
X126502177Y-116260000D01*
X126502157Y-116260001D01*
X126442622Y-116266401D01*
X126307915Y-116316645D01*
X126307905Y-116316650D01*
X126192812Y-116402809D01*
X126192809Y-116402812D01*
X126106650Y-116517905D01*
X126106645Y-116517915D01*
X126056401Y-116652622D01*
X126050001Y-116712157D01*
X126050000Y-116712177D01*
X105098519Y-116712177D01*
X105006928Y-116620586D01*
X105006924Y-116620583D01*
X104866793Y-116518771D01*
X104866790Y-116518769D01*
X104866788Y-116518768D01*
X104712445Y-116440127D01*
X104664821Y-116424653D01*
X104547700Y-116386597D01*
X104450086Y-116371137D01*
X104376611Y-116359500D01*
X104203389Y-116359500D01*
X104137037Y-116370009D01*
X104032299Y-116386597D01*
X103867561Y-116440125D01*
X103867555Y-116440127D01*
X103867549Y-116440129D01*
X103867549Y-116440130D01*
X103713206Y-116518771D01*
X103573075Y-116620583D01*
X103450583Y-116743075D01*
X103348771Y-116883206D01*
X103348768Y-116883212D01*
X103270127Y-117037555D01*
X103249867Y-117099910D01*
X103240707Y-117128100D01*
X103198700Y-117192785D01*
X103129978Y-117227800D01*
X103052956Y-117223763D01*
X102988271Y-117181756D01*
X102953256Y-117113034D01*
X102950000Y-117082056D01*
X102950000Y-116712177D01*
X102949998Y-116712157D01*
X102943598Y-116652622D01*
X102893354Y-116517915D01*
X102893349Y-116517905D01*
X102807190Y-116402812D01*
X102807187Y-116402809D01*
X102692094Y-116316650D01*
X102692084Y-116316645D01*
X102557376Y-116266401D01*
X102557378Y-116266401D01*
X102497842Y-116260001D01*
X102497823Y-116260000D01*
X102000000Y-116260000D01*
X102000000Y-117084722D01*
X101923694Y-117040667D01*
X101809244Y-117010000D01*
X101690756Y-117010000D01*
X101576306Y-117040667D01*
X101500000Y-117084722D01*
X101500000Y-116260000D01*
X101002177Y-116260000D01*
X101002157Y-116260001D01*
X100942622Y-116266401D01*
X100807915Y-116316645D01*
X100807905Y-116316650D01*
X100692812Y-116402809D01*
X100692809Y-116402812D01*
X100606650Y-116517905D01*
X100606645Y-116517915D01*
X100556401Y-116652622D01*
X100550001Y-116712157D01*
X100550000Y-116712177D01*
X85660500Y-116712177D01*
X85660500Y-99776078D01*
X101649500Y-99776078D01*
X101649500Y-99923921D01*
X101678341Y-100068911D01*
X101734916Y-100205497D01*
X101800532Y-100303697D01*
X101817049Y-100328416D01*
X101921584Y-100432951D01*
X101970685Y-100465759D01*
X102044502Y-100515083D01*
X102075444Y-100527899D01*
X102181087Y-100571658D01*
X102326082Y-100600500D01*
X102326086Y-100600500D01*
X102473914Y-100600500D01*
X102473918Y-100600500D01*
X102618913Y-100571658D01*
X102755495Y-100515084D01*
X102755495Y-100515083D01*
X102755497Y-100515083D01*
X102780213Y-100498567D01*
X102878416Y-100432951D01*
X102982951Y-100328416D01*
X103065084Y-100205495D01*
X103121658Y-100068913D01*
X103150500Y-99923918D01*
X103150500Y-99776082D01*
X103121658Y-99631087D01*
X103065084Y-99494505D01*
X103065083Y-99494502D01*
X103015759Y-99420685D01*
X102982951Y-99371584D01*
X102878416Y-99267049D01*
X102863821Y-99257297D01*
X102812968Y-99199310D01*
X102797921Y-99123664D01*
X102822713Y-99050629D01*
X102863822Y-99009520D01*
X102877040Y-99000688D01*
X102978416Y-98932951D01*
X103082951Y-98828416D01*
X103165084Y-98705495D01*
X103221658Y-98568913D01*
X103250500Y-98423918D01*
X103250500Y-98276082D01*
X103221658Y-98131087D01*
X103165084Y-97994505D01*
X103165083Y-97994502D01*
X103115759Y-97920685D01*
X103082951Y-97871584D01*
X102978416Y-97767049D01*
X102953697Y-97750532D01*
X102855497Y-97684916D01*
X102749852Y-97641157D01*
X102718913Y-97628342D01*
X102718911Y-97628341D01*
X102718912Y-97628341D01*
X102573921Y-97599500D01*
X102573918Y-97599500D01*
X102426082Y-97599500D01*
X102426078Y-97599500D01*
X102281088Y-97628341D01*
X102144502Y-97684916D01*
X102021585Y-97767048D01*
X102021580Y-97767052D01*
X101917052Y-97871580D01*
X101917048Y-97871585D01*
X101834916Y-97994502D01*
X101778341Y-98131088D01*
X101749500Y-98276078D01*
X101749500Y-98423921D01*
X101778341Y-98568911D01*
X101834916Y-98705497D01*
X101900532Y-98803697D01*
X101917049Y-98828416D01*
X102021584Y-98932951D01*
X102036178Y-98942702D01*
X102087030Y-99000688D01*
X102102078Y-99076334D01*
X102077287Y-99149369D01*
X102036178Y-99190478D01*
X101921587Y-99267046D01*
X101921580Y-99267052D01*
X101817052Y-99371580D01*
X101817048Y-99371585D01*
X101734916Y-99494502D01*
X101678341Y-99631088D01*
X101649500Y-99776078D01*
X85660500Y-99776078D01*
X85660500Y-93926078D01*
X130999500Y-93926078D01*
X130999500Y-94073921D01*
X131028341Y-94218911D01*
X131084916Y-94355497D01*
X131150532Y-94453697D01*
X131167049Y-94478416D01*
X131271584Y-94582951D01*
X131320685Y-94615759D01*
X131394502Y-94665083D01*
X131425444Y-94677899D01*
X131531087Y-94721658D01*
X131676082Y-94750500D01*
X131676086Y-94750500D01*
X131823914Y-94750500D01*
X131823918Y-94750500D01*
X131968913Y-94721658D01*
X132105495Y-94665084D01*
X132105495Y-94665083D01*
X132105497Y-94665083D01*
X132130213Y-94648567D01*
X132228416Y-94582951D01*
X132332951Y-94478416D01*
X132415084Y-94355495D01*
X132471658Y-94218913D01*
X132500500Y-94073918D01*
X132500500Y-93926082D01*
X132471658Y-93781087D01*
X132415084Y-93644505D01*
X132415083Y-93644502D01*
X132365759Y-93570685D01*
X132332951Y-93521584D01*
X132228416Y-93417049D01*
X132203697Y-93400532D01*
X132105497Y-93334916D01*
X131999852Y-93291157D01*
X131968913Y-93278342D01*
X131968911Y-93278341D01*
X131968912Y-93278341D01*
X131823921Y-93249500D01*
X131823918Y-93249500D01*
X131676082Y-93249500D01*
X131676078Y-93249500D01*
X131531088Y-93278341D01*
X131394502Y-93334916D01*
X131271585Y-93417048D01*
X131271580Y-93417052D01*
X131167052Y-93521580D01*
X131167048Y-93521585D01*
X131084916Y-93644502D01*
X131028341Y-93781088D01*
X130999500Y-93926078D01*
X85660500Y-93926078D01*
X85660500Y-92926078D01*
X132749500Y-92926078D01*
X132749500Y-93073921D01*
X132778341Y-93218911D01*
X132834916Y-93355497D01*
X132900532Y-93453697D01*
X132917049Y-93478416D01*
X133021584Y-93582951D01*
X133070685Y-93615759D01*
X133144502Y-93665083D01*
X133175444Y-93677899D01*
X133281087Y-93721658D01*
X133426082Y-93750500D01*
X133426086Y-93750500D01*
X133573914Y-93750500D01*
X133573918Y-93750500D01*
X133718913Y-93721658D01*
X133855495Y-93665084D01*
X133855495Y-93665083D01*
X133855497Y-93665083D01*
X133886298Y-93644502D01*
X133978416Y-93582951D01*
X134082951Y-93478416D01*
X134165084Y-93355495D01*
X134221658Y-93218913D01*
X134250500Y-93073918D01*
X134250500Y-92926082D01*
X134221658Y-92781087D01*
X134165084Y-92644505D01*
X134165083Y-92644502D01*
X134115759Y-92570685D01*
X134082951Y-92521584D01*
X133978416Y-92417049D01*
X133953697Y-92400532D01*
X133855497Y-92334916D01*
X133749852Y-92291157D01*
X133718913Y-92278342D01*
X133718911Y-92278341D01*
X133718912Y-92278341D01*
X133573921Y-92249500D01*
X133573918Y-92249500D01*
X133426082Y-92249500D01*
X133426078Y-92249500D01*
X133281088Y-92278341D01*
X133144502Y-92334916D01*
X133021585Y-92417048D01*
X133021580Y-92417052D01*
X132917052Y-92521580D01*
X132917048Y-92521585D01*
X132834916Y-92644502D01*
X132778341Y-92781088D01*
X132749500Y-92926078D01*
X85660500Y-92926078D01*
X85660500Y-90876078D01*
X93249500Y-90876078D01*
X93249500Y-91023921D01*
X93278341Y-91168911D01*
X93334916Y-91305497D01*
X93400532Y-91403697D01*
X93417049Y-91428416D01*
X93521584Y-91532951D01*
X93570685Y-91565759D01*
X93644502Y-91615083D01*
X93675444Y-91627899D01*
X93781087Y-91671658D01*
X93926082Y-91700500D01*
X93926086Y-91700500D01*
X94073914Y-91700500D01*
X94073918Y-91700500D01*
X94218913Y-91671658D01*
X94355495Y-91615084D01*
X94355495Y-91615083D01*
X94355497Y-91615083D01*
X94380213Y-91598567D01*
X94478416Y-91532951D01*
X94582951Y-91428416D01*
X94665084Y-91305495D01*
X94721658Y-91168913D01*
X94750500Y-91023918D01*
X94750500Y-90876082D01*
X94721658Y-90731087D01*
X94665084Y-90594505D01*
X94665083Y-90594502D01*
X94615759Y-90520685D01*
X94582951Y-90471584D01*
X94478416Y-90367049D01*
X94453697Y-90350532D01*
X94355497Y-90284916D01*
X94249852Y-90241157D01*
X94218913Y-90228342D01*
X94218911Y-90228341D01*
X94218912Y-90228341D01*
X94073921Y-90199500D01*
X94073918Y-90199500D01*
X93926082Y-90199500D01*
X93926078Y-90199500D01*
X93781088Y-90228341D01*
X93644502Y-90284916D01*
X93521585Y-90367048D01*
X93521580Y-90367052D01*
X93417052Y-90471580D01*
X93417048Y-90471585D01*
X93334916Y-90594502D01*
X93278341Y-90731088D01*
X93249500Y-90876078D01*
X85660500Y-90876078D01*
X85660500Y-89326078D01*
X115699500Y-89326078D01*
X115699500Y-89473921D01*
X115728341Y-89618911D01*
X115784916Y-89755497D01*
X115850532Y-89853697D01*
X115867049Y-89878416D01*
X115971584Y-89982951D01*
X116020685Y-90015759D01*
X116094502Y-90065083D01*
X116125444Y-90077899D01*
X116231087Y-90121658D01*
X116376082Y-90150500D01*
X116376086Y-90150500D01*
X116523914Y-90150500D01*
X116523918Y-90150500D01*
X116668913Y-90121658D01*
X116805495Y-90065084D01*
X116805495Y-90065083D01*
X116805497Y-90065083D01*
X116830213Y-90048567D01*
X116928416Y-89982951D01*
X117032951Y-89878416D01*
X117115084Y-89755495D01*
X117171658Y-89618913D01*
X117200500Y-89473918D01*
X117200500Y-89326082D01*
X117171658Y-89181087D01*
X117115084Y-89044505D01*
X117115083Y-89044502D01*
X117065759Y-88970685D01*
X117032951Y-88921584D01*
X116928416Y-88817049D01*
X116903697Y-88800532D01*
X116805497Y-88734916D01*
X116699852Y-88691157D01*
X116668913Y-88678342D01*
X116668911Y-88678341D01*
X116668912Y-88678341D01*
X116523921Y-88649500D01*
X116523918Y-88649500D01*
X116376082Y-88649500D01*
X116376078Y-88649500D01*
X116231088Y-88678341D01*
X116094502Y-88734916D01*
X115971585Y-88817048D01*
X115971580Y-88817052D01*
X115867052Y-88921580D01*
X115867048Y-88921585D01*
X115784916Y-89044502D01*
X115728341Y-89181088D01*
X115699500Y-89326078D01*
X85660500Y-89326078D01*
X85660500Y-85576078D01*
X91199500Y-85576078D01*
X91199500Y-85723921D01*
X91228341Y-85868911D01*
X91284916Y-86005497D01*
X91336670Y-86082951D01*
X91367049Y-86128416D01*
X91471584Y-86232951D01*
X91497848Y-86250500D01*
X91594502Y-86315083D01*
X91625444Y-86327899D01*
X91731087Y-86371658D01*
X91876082Y-86400500D01*
X91876086Y-86400500D01*
X92023914Y-86400500D01*
X92023918Y-86400500D01*
X92168913Y-86371658D01*
X92305495Y-86315084D01*
X92305495Y-86315083D01*
X92305497Y-86315083D01*
X92330213Y-86298567D01*
X92428416Y-86232951D01*
X92532951Y-86128416D01*
X92615084Y-86005495D01*
X92671658Y-85868913D01*
X92700500Y-85723918D01*
X92700500Y-85576082D01*
X92671658Y-85431087D01*
X92615084Y-85294505D01*
X92615083Y-85294502D01*
X92565759Y-85220685D01*
X92532951Y-85171584D01*
X92437445Y-85076078D01*
X109199500Y-85076078D01*
X109199500Y-85223921D01*
X109228341Y-85368911D01*
X109284916Y-85505497D01*
X109332083Y-85576086D01*
X109367049Y-85628416D01*
X109471584Y-85732951D01*
X109520685Y-85765759D01*
X109594502Y-85815083D01*
X109625444Y-85827899D01*
X109731087Y-85871658D01*
X109876082Y-85900500D01*
X109876086Y-85900500D01*
X110023914Y-85900500D01*
X110023918Y-85900500D01*
X110168913Y-85871658D01*
X110305495Y-85815084D01*
X110305495Y-85815083D01*
X110305497Y-85815083D01*
X110330213Y-85798567D01*
X110428416Y-85732951D01*
X110532951Y-85628416D01*
X110615084Y-85505495D01*
X110647980Y-85426078D01*
X128499500Y-85426078D01*
X128499500Y-85573921D01*
X128528341Y-85718911D01*
X128584916Y-85855497D01*
X128614987Y-85900500D01*
X128667049Y-85978416D01*
X128771584Y-86082951D01*
X128820685Y-86115759D01*
X128894502Y-86165083D01*
X128925444Y-86177899D01*
X129031087Y-86221658D01*
X129176082Y-86250500D01*
X129176086Y-86250500D01*
X129323914Y-86250500D01*
X129323918Y-86250500D01*
X129468913Y-86221658D01*
X129605495Y-86165084D01*
X129605495Y-86165083D01*
X129605497Y-86165083D01*
X129660368Y-86128419D01*
X129728416Y-86082951D01*
X129832951Y-85978416D01*
X129904284Y-85871658D01*
X129915083Y-85855497D01*
X129915084Y-85855495D01*
X129971658Y-85718913D01*
X130000500Y-85573918D01*
X130000500Y-85426082D01*
X129971658Y-85281087D01*
X129926301Y-85171585D01*
X129915083Y-85144502D01*
X129863329Y-85067048D01*
X129832951Y-85021584D01*
X129728416Y-84917049D01*
X129702152Y-84899500D01*
X129605497Y-84834916D01*
X129499852Y-84791157D01*
X129468913Y-84778342D01*
X129468911Y-84778341D01*
X129468912Y-84778341D01*
X129323921Y-84749500D01*
X129323918Y-84749500D01*
X129176082Y-84749500D01*
X129176078Y-84749500D01*
X129031088Y-84778341D01*
X128894502Y-84834916D01*
X128771585Y-84917048D01*
X128771580Y-84917052D01*
X128667052Y-85021580D01*
X128667048Y-85021585D01*
X128584916Y-85144502D01*
X128528341Y-85281088D01*
X128499500Y-85426078D01*
X110647980Y-85426078D01*
X110671658Y-85368913D01*
X110700500Y-85223918D01*
X110700500Y-85076082D01*
X110671658Y-84931087D01*
X110615084Y-84794505D01*
X110615083Y-84794502D01*
X110565759Y-84720685D01*
X110532951Y-84671584D01*
X110428416Y-84567049D01*
X110403697Y-84550532D01*
X110305497Y-84484916D01*
X110199852Y-84441157D01*
X110168913Y-84428342D01*
X110168911Y-84428341D01*
X110168912Y-84428341D01*
X110023921Y-84399500D01*
X110023918Y-84399500D01*
X109876082Y-84399500D01*
X109876078Y-84399500D01*
X109731088Y-84428341D01*
X109594502Y-84484916D01*
X109471585Y-84567048D01*
X109471580Y-84567052D01*
X109367052Y-84671580D01*
X109367048Y-84671585D01*
X109284916Y-84794502D01*
X109228341Y-84931088D01*
X109199500Y-85076078D01*
X92437445Y-85076078D01*
X92428416Y-85067049D01*
X92403697Y-85050532D01*
X92305497Y-84984916D01*
X92175540Y-84931087D01*
X92168913Y-84928342D01*
X92168911Y-84928341D01*
X92168912Y-84928341D01*
X92023921Y-84899500D01*
X92023918Y-84899500D01*
X91876082Y-84899500D01*
X91876078Y-84899500D01*
X91731088Y-84928341D01*
X91594502Y-84984916D01*
X91471585Y-85067048D01*
X91471580Y-85067052D01*
X91367052Y-85171580D01*
X91367048Y-85171585D01*
X91284916Y-85294502D01*
X91228341Y-85431088D01*
X91199500Y-85576078D01*
X85660500Y-85576078D01*
X85660500Y-82196078D01*
X94729500Y-82196078D01*
X94729500Y-82343921D01*
X94758341Y-82488911D01*
X94814916Y-82625497D01*
X94878611Y-82720821D01*
X94897049Y-82748416D01*
X95001584Y-82852951D01*
X95050685Y-82885759D01*
X95124502Y-82935083D01*
X95155444Y-82947899D01*
X95261087Y-82991658D01*
X95406082Y-83020500D01*
X95406086Y-83020500D01*
X95553914Y-83020500D01*
X95553918Y-83020500D01*
X95698913Y-82991658D01*
X95835495Y-82935084D01*
X95835495Y-82935083D01*
X95835497Y-82935083D01*
X95862488Y-82917048D01*
X95958416Y-82852951D01*
X96062951Y-82748416D01*
X96145084Y-82625495D01*
X96201658Y-82488913D01*
X96230500Y-82343918D01*
X96230500Y-82196082D01*
X96201658Y-82051087D01*
X96145084Y-81914505D01*
X96145083Y-81914502D01*
X96088069Y-81829176D01*
X96062951Y-81791584D01*
X95958416Y-81687049D01*
X95933697Y-81670532D01*
X95835497Y-81604916D01*
X95729852Y-81561157D01*
X95698913Y-81548342D01*
X95698911Y-81548341D01*
X95698912Y-81548341D01*
X95553921Y-81519500D01*
X95553918Y-81519500D01*
X95406082Y-81519500D01*
X95406078Y-81519500D01*
X95261088Y-81548341D01*
X95124502Y-81604916D01*
X95001585Y-81687048D01*
X95001580Y-81687052D01*
X94897052Y-81791580D01*
X94897048Y-81791585D01*
X94814916Y-81914502D01*
X94758341Y-82051088D01*
X94729500Y-82196078D01*
X85660500Y-82196078D01*
X85660500Y-81371157D01*
X100799500Y-81371157D01*
X100799500Y-81528842D01*
X100830262Y-81683494D01*
X100830263Y-81683498D01*
X100890604Y-81829176D01*
X100890605Y-81829178D01*
X100890606Y-81829179D01*
X100978211Y-81960289D01*
X101089711Y-82071789D01*
X101208425Y-82151111D01*
X101259278Y-82209100D01*
X101274325Y-82284746D01*
X101249533Y-82357781D01*
X101208425Y-82398889D01*
X101089707Y-82478214D01*
X100978214Y-82589707D01*
X100890604Y-82720823D01*
X100830263Y-82866501D01*
X100830262Y-82866505D01*
X100799500Y-83021157D01*
X100799500Y-83178842D01*
X100830262Y-83333494D01*
X100830263Y-83333498D01*
X100890604Y-83479176D01*
X100890605Y-83479178D01*
X100890606Y-83479179D01*
X100978211Y-83610289D01*
X101089711Y-83721789D01*
X101220821Y-83809394D01*
X101366503Y-83869737D01*
X101521158Y-83900500D01*
X101678842Y-83900500D01*
X101833497Y-83869737D01*
X101979179Y-83809394D01*
X102110289Y-83721789D01*
X102221789Y-83610289D01*
X102309394Y-83479179D01*
X102331389Y-83426078D01*
X127499500Y-83426078D01*
X127499500Y-83573921D01*
X127528341Y-83718911D01*
X127584916Y-83855497D01*
X127614987Y-83900500D01*
X127667049Y-83978416D01*
X127771584Y-84082951D01*
X127820685Y-84115759D01*
X127894502Y-84165083D01*
X127925444Y-84177899D01*
X128031087Y-84221658D01*
X128176082Y-84250500D01*
X128176086Y-84250500D01*
X128323914Y-84250500D01*
X128323918Y-84250500D01*
X128468913Y-84221658D01*
X128605495Y-84165084D01*
X128605495Y-84165083D01*
X128605497Y-84165083D01*
X128630213Y-84148567D01*
X128728416Y-84082951D01*
X128832951Y-83978416D01*
X128905568Y-83869737D01*
X128915083Y-83855497D01*
X128934179Y-83809395D01*
X128971658Y-83718913D01*
X129000500Y-83573918D01*
X129000500Y-83426082D01*
X128971658Y-83281087D01*
X128915084Y-83144505D01*
X128915083Y-83144502D01*
X128840543Y-83032947D01*
X128832951Y-83021584D01*
X128728416Y-82917049D01*
X128703697Y-82900532D01*
X128605497Y-82834916D01*
X128499852Y-82791157D01*
X128468913Y-82778342D01*
X128468911Y-82778341D01*
X128468912Y-82778341D01*
X128323921Y-82749500D01*
X128323918Y-82749500D01*
X128176082Y-82749500D01*
X128176078Y-82749500D01*
X128031088Y-82778341D01*
X127894502Y-82834916D01*
X127771585Y-82917048D01*
X127771580Y-82917052D01*
X127667052Y-83021580D01*
X127667048Y-83021585D01*
X127584916Y-83144502D01*
X127528341Y-83281088D01*
X127499500Y-83426078D01*
X102331389Y-83426078D01*
X102369737Y-83333497D01*
X102400500Y-83178842D01*
X102400500Y-83021158D01*
X102369737Y-82866503D01*
X102309394Y-82720821D01*
X102221789Y-82589711D01*
X102110289Y-82478211D01*
X101990953Y-82398473D01*
X101990287Y-82398018D01*
X101971447Y-82376078D01*
X119574500Y-82376078D01*
X119574500Y-82523921D01*
X119603341Y-82668911D01*
X119659916Y-82805497D01*
X119700680Y-82866503D01*
X119742049Y-82928416D01*
X119846584Y-83032951D01*
X119895685Y-83065759D01*
X119969502Y-83115083D01*
X120000444Y-83127899D01*
X120106087Y-83171658D01*
X120251082Y-83200500D01*
X120251086Y-83200500D01*
X120398914Y-83200500D01*
X120398918Y-83200500D01*
X120543913Y-83171658D01*
X120680495Y-83115084D01*
X120680495Y-83115083D01*
X120680497Y-83115083D01*
X120705213Y-83098567D01*
X120803416Y-83032951D01*
X120907951Y-82928416D01*
X120990084Y-82805495D01*
X121046658Y-82668913D01*
X121075500Y-82523918D01*
X121075500Y-82376082D01*
X121046658Y-82231087D01*
X120990084Y-82094505D01*
X120990083Y-82094502D01*
X120940759Y-82020685D01*
X120907951Y-81971584D01*
X120803416Y-81867049D01*
X120778697Y-81850532D01*
X120680497Y-81784916D01*
X120574852Y-81741157D01*
X120543913Y-81728342D01*
X120543911Y-81728341D01*
X120543912Y-81728341D01*
X120398921Y-81699500D01*
X120398918Y-81699500D01*
X120251082Y-81699500D01*
X120251078Y-81699500D01*
X120106088Y-81728341D01*
X119969502Y-81784916D01*
X119846585Y-81867048D01*
X119846580Y-81867052D01*
X119742052Y-81971580D01*
X119742048Y-81971585D01*
X119659916Y-82094502D01*
X119603341Y-82231088D01*
X119574500Y-82376078D01*
X101971447Y-82376078D01*
X101965653Y-82369331D01*
X101940721Y-82340901D01*
X101940564Y-82340113D01*
X101940040Y-82339503D01*
X101933047Y-82302323D01*
X101925674Y-82265255D01*
X101925932Y-82264493D01*
X101925784Y-82263704D01*
X101938300Y-82228057D01*
X101950466Y-82192220D01*
X101951111Y-82191574D01*
X101951337Y-82190932D01*
X101954288Y-82188397D01*
X101991575Y-82151111D01*
X102110289Y-82071789D01*
X102221789Y-81960289D01*
X102309394Y-81829179D01*
X102369737Y-81683497D01*
X102400500Y-81528842D01*
X102400500Y-81371158D01*
X102369737Y-81216503D01*
X102309394Y-81070821D01*
X102221789Y-80939711D01*
X102110289Y-80828211D01*
X101979179Y-80740606D01*
X101979178Y-80740605D01*
X101979176Y-80740604D01*
X101833498Y-80680263D01*
X101833494Y-80680262D01*
X101678842Y-80649500D01*
X101521158Y-80649500D01*
X101366505Y-80680262D01*
X101366501Y-80680263D01*
X101220823Y-80740604D01*
X101089707Y-80828214D01*
X100978214Y-80939707D01*
X100890604Y-81070823D01*
X100830263Y-81216501D01*
X100830262Y-81216505D01*
X100799500Y-81371157D01*
X85660500Y-81371157D01*
X85660500Y-77536081D01*
X104249500Y-77536081D01*
X104249500Y-77683924D01*
X104278341Y-77828914D01*
X104334916Y-77965500D01*
X104393351Y-78052952D01*
X104417049Y-78088419D01*
X104521584Y-78192954D01*
X104570685Y-78225762D01*
X104644502Y-78275086D01*
X104675444Y-78287902D01*
X104781087Y-78331661D01*
X104926082Y-78360503D01*
X104926086Y-78360503D01*
X105073914Y-78360503D01*
X105073918Y-78360503D01*
X105218913Y-78331661D01*
X105353103Y-78276078D01*
X108699500Y-78276078D01*
X108699500Y-78423921D01*
X108728341Y-78568911D01*
X108784916Y-78705497D01*
X108850532Y-78803697D01*
X108867049Y-78828416D01*
X108971584Y-78932951D01*
X109020685Y-78965759D01*
X109094502Y-79015083D01*
X109110197Y-79021584D01*
X109231087Y-79071658D01*
X109376082Y-79100500D01*
X109376086Y-79100500D01*
X109379948Y-79100500D01*
X109382192Y-79101101D01*
X109383366Y-79101217D01*
X109383346Y-79101410D01*
X109454448Y-79120462D01*
X109508986Y-79175000D01*
X109528948Y-79249500D01*
X109508986Y-79324000D01*
X109474470Y-79364681D01*
X109471581Y-79367051D01*
X109367052Y-79471580D01*
X109367048Y-79471585D01*
X109284916Y-79594502D01*
X109228341Y-79731088D01*
X109199500Y-79876078D01*
X109199500Y-80023921D01*
X109228341Y-80168911D01*
X109284916Y-80305497D01*
X109350532Y-80403697D01*
X109367049Y-80428416D01*
X109471584Y-80532951D01*
X109520685Y-80565759D01*
X109594502Y-80615083D01*
X109625444Y-80627899D01*
X109731087Y-80671658D01*
X109876082Y-80700500D01*
X109876086Y-80700500D01*
X110023914Y-80700500D01*
X110023918Y-80700500D01*
X110168913Y-80671658D01*
X110305495Y-80615084D01*
X110305495Y-80615083D01*
X110305497Y-80615083D01*
X110330213Y-80598567D01*
X110428416Y-80532951D01*
X110532951Y-80428416D01*
X110615084Y-80305495D01*
X110671658Y-80168913D01*
X110700500Y-80023918D01*
X110700500Y-79876082D01*
X110671658Y-79731087D01*
X110615084Y-79594505D01*
X110615083Y-79594502D01*
X110552968Y-79501542D01*
X110532951Y-79471584D01*
X110487445Y-79426078D01*
X123499500Y-79426078D01*
X123499500Y-79573921D01*
X123528341Y-79718911D01*
X123584916Y-79855497D01*
X123650532Y-79953697D01*
X123667049Y-79978416D01*
X123771584Y-80082951D01*
X123820685Y-80115759D01*
X123894502Y-80165083D01*
X123903744Y-80168911D01*
X124031087Y-80221658D01*
X124176082Y-80250500D01*
X124176086Y-80250500D01*
X124323914Y-80250500D01*
X124323918Y-80250500D01*
X124468913Y-80221658D01*
X124605495Y-80165084D01*
X124605495Y-80165083D01*
X124605497Y-80165083D01*
X124630213Y-80148567D01*
X124728416Y-80082951D01*
X124832951Y-79978416D01*
X124915084Y-79855495D01*
X124971658Y-79718913D01*
X125000500Y-79573918D01*
X125000500Y-79426082D01*
X124971658Y-79281087D01*
X124929595Y-79179538D01*
X124915083Y-79144502D01*
X124869269Y-79075938D01*
X124844477Y-79002904D01*
X124859524Y-78927258D01*
X124910378Y-78869269D01*
X124983412Y-78844477D01*
X125059058Y-78859524D01*
X125075938Y-78869269D01*
X125144502Y-78915083D01*
X125149256Y-78917052D01*
X125281087Y-78971658D01*
X125426082Y-79000500D01*
X125426086Y-79000500D01*
X125573914Y-79000500D01*
X125573918Y-79000500D01*
X125718913Y-78971658D01*
X125855495Y-78915084D01*
X125855495Y-78915083D01*
X125855497Y-78915083D01*
X125892325Y-78890475D01*
X125978416Y-78832951D01*
X126082951Y-78728416D01*
X126114427Y-78681308D01*
X136629500Y-78681308D01*
X136629500Y-78858691D01*
X136664105Y-79032663D01*
X136664106Y-79032667D01*
X136731986Y-79196546D01*
X136731987Y-79196548D01*
X136817149Y-79324000D01*
X136830536Y-79344035D01*
X136955965Y-79469464D01*
X136955968Y-79469466D01*
X137103451Y-79568012D01*
X137103453Y-79568013D01*
X137267334Y-79635894D01*
X137441309Y-79670500D01*
X138718691Y-79670500D01*
X138892666Y-79635894D01*
X139056547Y-79568013D01*
X139204035Y-79469464D01*
X139329464Y-79344035D01*
X139428013Y-79196547D01*
X139495894Y-79032666D01*
X139530500Y-78858691D01*
X139530500Y-78681309D01*
X139495894Y-78507334D01*
X139428013Y-78343453D01*
X139329464Y-78195965D01*
X139204035Y-78070536D01*
X139204031Y-78070533D01*
X139056549Y-77971987D01*
X138985426Y-77942528D01*
X138924237Y-77895576D01*
X138894721Y-77824319D01*
X138904788Y-77747850D01*
X138937083Y-77699516D01*
X138998496Y-77638104D01*
X139057395Y-77536089D01*
X139062412Y-77527400D01*
X139062412Y-77527398D01*
X139062414Y-77527396D01*
X139095500Y-77403917D01*
X139095500Y-77276083D01*
X139062414Y-77152604D01*
X139062412Y-77152601D01*
X139062412Y-77152599D01*
X138998498Y-77041900D01*
X138998496Y-77041896D01*
X138908104Y-76951504D01*
X138896697Y-76944918D01*
X138797400Y-76887587D01*
X138673917Y-76854500D01*
X138546083Y-76854500D01*
X138422599Y-76887587D01*
X138311900Y-76951501D01*
X138311895Y-76951505D01*
X138221505Y-77041895D01*
X138221501Y-77041900D01*
X138157587Y-77152599D01*
X138124500Y-77276081D01*
X138124500Y-77403918D01*
X138132280Y-77432951D01*
X138150379Y-77500500D01*
X138157587Y-77527398D01*
X138158132Y-77528342D01*
X138221504Y-77638104D01*
X138221506Y-77638106D01*
X138226063Y-77645998D01*
X138246026Y-77720498D01*
X138226065Y-77794998D01*
X138171528Y-77849537D01*
X138097028Y-77869500D01*
X137441309Y-77869500D01*
X137267336Y-77904105D01*
X137267332Y-77904106D01*
X137103453Y-77971986D01*
X137103451Y-77971987D01*
X136955968Y-78070533D01*
X136955963Y-78070537D01*
X136830537Y-78195963D01*
X136830533Y-78195968D01*
X136731987Y-78343451D01*
X136731986Y-78343453D01*
X136664106Y-78507332D01*
X136664105Y-78507336D01*
X136629500Y-78681308D01*
X126114427Y-78681308D01*
X126165084Y-78605495D01*
X126221658Y-78468913D01*
X126250500Y-78323918D01*
X126250500Y-78176082D01*
X126221658Y-78031087D01*
X126169061Y-77904106D01*
X126165083Y-77894502D01*
X126115759Y-77820685D01*
X126082951Y-77771584D01*
X125978416Y-77667049D01*
X125935097Y-77638104D01*
X125855497Y-77584916D01*
X125737606Y-77536085D01*
X125718913Y-77528342D01*
X125718911Y-77528341D01*
X125718912Y-77528341D01*
X125573921Y-77499500D01*
X125573918Y-77499500D01*
X125426082Y-77499500D01*
X125426078Y-77499500D01*
X125281088Y-77528341D01*
X125144502Y-77584916D01*
X125021585Y-77667048D01*
X125021580Y-77667052D01*
X124917052Y-77771580D01*
X124917048Y-77771585D01*
X124834916Y-77894502D01*
X124778341Y-78031088D01*
X124749500Y-78176078D01*
X124749500Y-78323921D01*
X124778341Y-78468911D01*
X124778342Y-78468913D01*
X124834916Y-78605495D01*
X124834917Y-78605497D01*
X124834916Y-78605497D01*
X124880730Y-78674061D01*
X124905522Y-78747096D01*
X124890475Y-78822742D01*
X124839621Y-78880730D01*
X124766586Y-78905522D01*
X124690940Y-78890475D01*
X124674061Y-78880730D01*
X124605497Y-78834917D01*
X124600741Y-78832947D01*
X124468913Y-78778342D01*
X124468911Y-78778341D01*
X124468912Y-78778341D01*
X124323921Y-78749500D01*
X124323918Y-78749500D01*
X124176082Y-78749500D01*
X124176078Y-78749500D01*
X124031088Y-78778341D01*
X123894502Y-78834916D01*
X123771585Y-78917048D01*
X123771580Y-78917052D01*
X123667052Y-79021580D01*
X123667048Y-79021585D01*
X123584916Y-79144502D01*
X123528341Y-79281088D01*
X123499500Y-79426078D01*
X110487445Y-79426078D01*
X110428416Y-79367049D01*
X110393967Y-79344031D01*
X110305497Y-79284916D01*
X110199852Y-79241157D01*
X110168913Y-79228342D01*
X110168911Y-79228341D01*
X110168912Y-79228341D01*
X110023921Y-79199500D01*
X110023918Y-79199500D01*
X110020052Y-79199500D01*
X110017807Y-79198898D01*
X110016634Y-79198783D01*
X110016653Y-79198589D01*
X109945552Y-79179538D01*
X109891014Y-79125000D01*
X109871052Y-79050500D01*
X109891014Y-78976000D01*
X109925530Y-78935319D01*
X109928407Y-78932956D01*
X109928416Y-78932951D01*
X110032951Y-78828416D01*
X110115084Y-78705495D01*
X110171658Y-78568913D01*
X110200500Y-78423918D01*
X110200500Y-78276082D01*
X110171658Y-78131087D01*
X110115084Y-77994505D01*
X110115083Y-77994502D01*
X110048264Y-77894502D01*
X110032951Y-77871584D01*
X109928416Y-77767049D01*
X109899683Y-77747850D01*
X109805497Y-77684916D01*
X109699852Y-77641157D01*
X109668913Y-77628342D01*
X109668911Y-77628341D01*
X109668912Y-77628341D01*
X109523921Y-77599500D01*
X109523918Y-77599500D01*
X109376082Y-77599500D01*
X109376078Y-77599500D01*
X109231088Y-77628341D01*
X109094502Y-77684916D01*
X108971585Y-77767048D01*
X108971580Y-77767052D01*
X108867052Y-77871580D01*
X108867048Y-77871585D01*
X108784916Y-77994502D01*
X108728341Y-78131088D01*
X108699500Y-78276078D01*
X105353103Y-78276078D01*
X105355495Y-78275087D01*
X105355495Y-78275086D01*
X105355497Y-78275086D01*
X105380213Y-78258570D01*
X105478416Y-78192954D01*
X105582951Y-78088419D01*
X105665084Y-77965498D01*
X105721658Y-77828916D01*
X105750500Y-77683921D01*
X105750500Y-77536085D01*
X105721658Y-77391090D01*
X105665084Y-77254508D01*
X105665083Y-77254505D01*
X105596994Y-77152604D01*
X105582951Y-77131587D01*
X105478416Y-77027052D01*
X105391402Y-76968911D01*
X105355496Y-76944919D01*
X105355493Y-76944918D01*
X105262550Y-76906420D01*
X105218913Y-76888345D01*
X105218911Y-76888344D01*
X105218912Y-76888344D01*
X105073921Y-76859503D01*
X105073918Y-76859503D01*
X104926082Y-76859503D01*
X104926078Y-76859503D01*
X104781088Y-76888344D01*
X104644502Y-76944919D01*
X104521585Y-77027051D01*
X104521580Y-77027055D01*
X104417052Y-77131583D01*
X104417048Y-77131588D01*
X104334916Y-77254505D01*
X104278341Y-77391091D01*
X104249500Y-77536081D01*
X85660500Y-77536081D01*
X85660500Y-76676078D01*
X101749500Y-76676078D01*
X101749500Y-76823921D01*
X101778341Y-76968911D01*
X101834916Y-77105497D01*
X101900532Y-77203697D01*
X101917049Y-77228416D01*
X102021584Y-77332951D01*
X102070685Y-77365759D01*
X102144502Y-77415083D01*
X102175444Y-77427899D01*
X102281087Y-77471658D01*
X102426082Y-77500500D01*
X102426086Y-77500500D01*
X102573914Y-77500500D01*
X102573918Y-77500500D01*
X102718913Y-77471658D01*
X102855495Y-77415084D01*
X102978416Y-77332951D01*
X103082951Y-77228416D01*
X103165084Y-77105495D01*
X103221658Y-76968913D01*
X103250500Y-76823918D01*
X103250500Y-76776078D01*
X129399500Y-76776078D01*
X129399500Y-76923921D01*
X129428341Y-77068911D01*
X129484916Y-77205497D01*
X129517663Y-77254505D01*
X129567049Y-77328416D01*
X129671584Y-77432951D01*
X129720685Y-77465759D01*
X129794502Y-77515083D01*
X129825444Y-77527899D01*
X129931087Y-77571658D01*
X130076082Y-77600500D01*
X130076086Y-77600500D01*
X130223914Y-77600500D01*
X130223918Y-77600500D01*
X130368913Y-77571658D01*
X130505495Y-77515084D01*
X130505495Y-77515083D01*
X130505497Y-77515083D01*
X130530213Y-77498567D01*
X130628416Y-77432951D01*
X130732951Y-77328416D01*
X130815084Y-77205495D01*
X130871658Y-77068913D01*
X130900500Y-76923918D01*
X130900500Y-76776082D01*
X130871658Y-76631087D01*
X130815084Y-76494505D01*
X130815083Y-76494502D01*
X130748264Y-76394502D01*
X130732951Y-76371584D01*
X130628416Y-76267049D01*
X130603697Y-76250532D01*
X130505497Y-76184916D01*
X130399852Y-76141157D01*
X130368913Y-76128342D01*
X130368911Y-76128341D01*
X130368912Y-76128341D01*
X130223921Y-76099500D01*
X130223918Y-76099500D01*
X130076082Y-76099500D01*
X130076078Y-76099500D01*
X129931088Y-76128341D01*
X129794502Y-76184916D01*
X129671585Y-76267048D01*
X129671580Y-76267052D01*
X129567052Y-76371580D01*
X129567048Y-76371585D01*
X129484916Y-76494502D01*
X129428341Y-76631088D01*
X129399500Y-76776078D01*
X103250500Y-76776078D01*
X103250500Y-76676082D01*
X103221658Y-76531087D01*
X103165084Y-76394505D01*
X103165083Y-76394502D01*
X103115759Y-76320685D01*
X103082951Y-76271584D01*
X102978416Y-76167049D01*
X102920487Y-76128342D01*
X102855497Y-76084916D01*
X102749852Y-76041157D01*
X102718913Y-76028342D01*
X102718911Y-76028341D01*
X102718912Y-76028341D01*
X102573921Y-75999500D01*
X102573918Y-75999500D01*
X102426082Y-75999500D01*
X102426078Y-75999500D01*
X102281088Y-76028341D01*
X102144502Y-76084916D01*
X102021585Y-76167048D01*
X102021580Y-76167052D01*
X101917052Y-76271580D01*
X101917048Y-76271585D01*
X101834916Y-76394502D01*
X101778341Y-76531088D01*
X101749500Y-76676078D01*
X85660500Y-76676078D01*
X85660500Y-75676078D01*
X104249500Y-75676078D01*
X104249500Y-75823921D01*
X104278341Y-75968911D01*
X104334916Y-76105497D01*
X104387983Y-76184916D01*
X104417049Y-76228416D01*
X104521584Y-76332951D01*
X104570685Y-76365759D01*
X104644502Y-76415083D01*
X104675444Y-76427899D01*
X104781087Y-76471658D01*
X104926082Y-76500500D01*
X104926086Y-76500500D01*
X105073914Y-76500500D01*
X105073918Y-76500500D01*
X105218913Y-76471658D01*
X105355495Y-76415084D01*
X105355495Y-76415083D01*
X105355497Y-76415083D01*
X105386298Y-76394502D01*
X105478416Y-76332951D01*
X105582951Y-76228416D01*
X105665084Y-76105495D01*
X105721658Y-75968913D01*
X105750500Y-75823918D01*
X105750500Y-75676082D01*
X105721658Y-75531087D01*
X105665084Y-75394505D01*
X105665083Y-75394502D01*
X105615759Y-75320685D01*
X105582951Y-75271584D01*
X105478416Y-75167049D01*
X105453697Y-75150532D01*
X105355497Y-75084916D01*
X105249852Y-75041157D01*
X105218913Y-75028342D01*
X105218911Y-75028341D01*
X105218912Y-75028341D01*
X105073921Y-74999500D01*
X105073918Y-74999500D01*
X104926082Y-74999500D01*
X104926078Y-74999500D01*
X104781088Y-75028341D01*
X104644502Y-75084916D01*
X104521585Y-75167048D01*
X104521580Y-75167052D01*
X104417052Y-75271580D01*
X104417048Y-75271585D01*
X104334916Y-75394502D01*
X104278341Y-75531088D01*
X104249500Y-75676078D01*
X85660500Y-75676078D01*
X85660500Y-73176078D01*
X112749500Y-73176078D01*
X112749500Y-73323921D01*
X112778341Y-73468911D01*
X112834916Y-73605497D01*
X112900532Y-73703697D01*
X112917049Y-73728416D01*
X113021584Y-73832951D01*
X113070685Y-73865759D01*
X113144502Y-73915083D01*
X113175444Y-73927899D01*
X113281087Y-73971658D01*
X113426082Y-74000500D01*
X113426086Y-74000500D01*
X113573914Y-74000500D01*
X113573918Y-74000500D01*
X113718913Y-73971658D01*
X113855495Y-73915084D01*
X113855495Y-73915083D01*
X113855497Y-73915083D01*
X113880213Y-73898567D01*
X113978416Y-73832951D01*
X114082951Y-73728416D01*
X114152826Y-73623841D01*
X114165083Y-73605497D01*
X114174422Y-73582951D01*
X114221658Y-73468913D01*
X114221658Y-73468911D01*
X114224459Y-73462150D01*
X114227266Y-73463312D01*
X114260413Y-73410084D01*
X114328456Y-73373768D01*
X114362200Y-73369897D01*
X114372406Y-73369897D01*
X114372410Y-73369897D01*
X114517405Y-73341055D01*
X114653987Y-73284481D01*
X114653987Y-73284480D01*
X114653989Y-73284480D01*
X114678705Y-73267964D01*
X114776908Y-73202348D01*
X114881443Y-73097813D01*
X114963576Y-72974892D01*
X114963577Y-72974888D01*
X114967024Y-72968441D01*
X114968534Y-72969248D01*
X115009788Y-72915479D01*
X115081043Y-72885959D01*
X115157512Y-72896022D01*
X115218704Y-72942971D01*
X115248224Y-73014226D01*
X115249500Y-73033683D01*
X115249500Y-73073921D01*
X115278341Y-73218911D01*
X115334916Y-73355497D01*
X115371391Y-73410084D01*
X115417049Y-73478416D01*
X115521584Y-73582951D01*
X115545675Y-73599048D01*
X115644502Y-73665083D01*
X115675444Y-73677899D01*
X115781087Y-73721658D01*
X115926082Y-73750500D01*
X115926086Y-73750500D01*
X116073914Y-73750500D01*
X116073918Y-73750500D01*
X116218913Y-73721658D01*
X116355495Y-73665084D01*
X116417220Y-73623840D01*
X116490253Y-73599048D01*
X116565899Y-73614094D01*
X116582776Y-73623838D01*
X116607029Y-73640043D01*
X116644501Y-73665082D01*
X116644503Y-73665083D01*
X116644505Y-73665084D01*
X116781087Y-73721658D01*
X116926082Y-73750500D01*
X116926086Y-73750500D01*
X117073914Y-73750500D01*
X117073918Y-73750500D01*
X117218913Y-73721658D01*
X117355495Y-73665084D01*
X117355495Y-73665083D01*
X117355497Y-73665083D01*
X117380213Y-73648567D01*
X117478416Y-73582951D01*
X117582951Y-73478416D01*
X117665084Y-73355495D01*
X117721658Y-73218913D01*
X117750500Y-73073918D01*
X117750500Y-72926082D01*
X117721658Y-72781087D01*
X117665084Y-72644505D01*
X117665083Y-72644503D01*
X117665083Y-72644502D01*
X117615759Y-72570685D01*
X117582951Y-72521584D01*
X117478416Y-72417049D01*
X117453625Y-72400484D01*
X117355497Y-72334916D01*
X117249852Y-72291157D01*
X117218913Y-72278342D01*
X117218911Y-72278341D01*
X117218912Y-72278341D01*
X117073921Y-72249500D01*
X117073918Y-72249500D01*
X116926082Y-72249500D01*
X116926078Y-72249500D01*
X116781088Y-72278341D01*
X116644502Y-72334917D01*
X116582780Y-72376159D01*
X116509745Y-72400951D01*
X116434099Y-72385904D01*
X116417220Y-72376159D01*
X116355497Y-72334917D01*
X116355495Y-72334916D01*
X116218913Y-72278342D01*
X116218911Y-72278341D01*
X116218912Y-72278341D01*
X116073921Y-72249500D01*
X116073918Y-72249500D01*
X115926082Y-72249500D01*
X115926078Y-72249500D01*
X115781088Y-72278341D01*
X115644502Y-72334916D01*
X115521585Y-72417048D01*
X115521580Y-72417052D01*
X115417052Y-72521580D01*
X115417048Y-72521585D01*
X115334916Y-72644503D01*
X115331468Y-72650956D01*
X115329959Y-72650149D01*
X115288696Y-72703924D01*
X115217439Y-72733439D01*
X115140970Y-72723370D01*
X115079781Y-72676417D01*
X115050266Y-72605160D01*
X115048992Y-72585713D01*
X115048992Y-72545483D01*
X115048991Y-72545475D01*
X115023445Y-72417052D01*
X115020150Y-72400484D01*
X114963576Y-72263902D01*
X114963575Y-72263899D01*
X114914251Y-72190082D01*
X114881443Y-72140981D01*
X114776908Y-72036446D01*
X114752189Y-72019929D01*
X114653989Y-71954313D01*
X114548344Y-71910554D01*
X114517405Y-71897739D01*
X114517403Y-71897738D01*
X114517404Y-71897738D01*
X114372413Y-71868897D01*
X114372410Y-71868897D01*
X114224574Y-71868897D01*
X114224570Y-71868897D01*
X114079580Y-71897738D01*
X113942994Y-71954313D01*
X113820077Y-72036445D01*
X113820072Y-72036449D01*
X113715544Y-72140977D01*
X113715540Y-72140982D01*
X113633408Y-72263899D01*
X113574033Y-72407247D01*
X113571225Y-72406084D01*
X113538079Y-72459313D01*
X113470036Y-72495629D01*
X113436292Y-72499500D01*
X113426078Y-72499500D01*
X113281088Y-72528341D01*
X113144502Y-72584916D01*
X113021585Y-72667048D01*
X113021580Y-72667052D01*
X112917052Y-72771580D01*
X112917048Y-72771585D01*
X112834916Y-72894502D01*
X112778341Y-73031088D01*
X112749500Y-73176078D01*
X85660500Y-73176078D01*
X85660500Y-71176078D01*
X110499500Y-71176078D01*
X110499500Y-71323921D01*
X110528341Y-71468911D01*
X110584916Y-71605497D01*
X110627289Y-71668911D01*
X110667049Y-71728416D01*
X110771584Y-71832951D01*
X110809221Y-71858099D01*
X110894502Y-71915083D01*
X110925444Y-71927899D01*
X111031087Y-71971658D01*
X111176082Y-72000500D01*
X111176086Y-72000500D01*
X111323914Y-72000500D01*
X111323918Y-72000500D01*
X111468913Y-71971658D01*
X111605495Y-71915084D01*
X111605495Y-71915083D01*
X111605497Y-71915083D01*
X111660368Y-71878419D01*
X111728416Y-71832951D01*
X111832951Y-71728416D01*
X111902776Y-71623916D01*
X111915083Y-71605497D01*
X111915084Y-71605495D01*
X111971658Y-71468913D01*
X112000500Y-71323918D01*
X112000500Y-71176082D01*
X111971658Y-71031087D01*
X111935981Y-70944956D01*
X111915083Y-70894502D01*
X111852968Y-70801542D01*
X111841859Y-70784916D01*
X111832951Y-70771584D01*
X111787445Y-70726078D01*
X120549500Y-70726078D01*
X120549500Y-70873921D01*
X120578341Y-71018911D01*
X120634916Y-71155497D01*
X120700532Y-71253697D01*
X120717049Y-71278416D01*
X120821584Y-71382951D01*
X120870685Y-71415759D01*
X120944502Y-71465083D01*
X120953744Y-71468911D01*
X121081087Y-71521658D01*
X121226082Y-71550500D01*
X121226086Y-71550500D01*
X121373914Y-71550500D01*
X121373918Y-71550500D01*
X121518913Y-71521658D01*
X121655495Y-71465084D01*
X121655495Y-71465083D01*
X121655497Y-71465083D01*
X121680213Y-71448567D01*
X121778416Y-71382951D01*
X121785289Y-71376078D01*
X123949500Y-71376078D01*
X123949500Y-71523921D01*
X123978341Y-71668911D01*
X124034916Y-71805497D01*
X124083640Y-71878416D01*
X124117049Y-71928416D01*
X124221584Y-72032951D01*
X124269673Y-72065083D01*
X124344502Y-72115083D01*
X124360376Y-72121658D01*
X124481087Y-72171658D01*
X124626082Y-72200500D01*
X124626086Y-72200500D01*
X124773914Y-72200500D01*
X124773918Y-72200500D01*
X124918913Y-72171658D01*
X125055495Y-72115084D01*
X125055495Y-72115083D01*
X125055497Y-72115083D01*
X125080213Y-72098567D01*
X125178416Y-72032951D01*
X125282951Y-71928416D01*
X125365084Y-71805495D01*
X125421658Y-71668913D01*
X125450500Y-71523918D01*
X125450500Y-71376082D01*
X125440553Y-71326078D01*
X128249500Y-71326078D01*
X128249500Y-71473921D01*
X128278341Y-71618911D01*
X128334916Y-71755497D01*
X128386670Y-71832951D01*
X128417049Y-71878416D01*
X128521584Y-71982951D01*
X128547848Y-72000500D01*
X128644502Y-72065083D01*
X128675444Y-72077899D01*
X128781087Y-72121658D01*
X128926082Y-72150500D01*
X128926086Y-72150500D01*
X129073914Y-72150500D01*
X129073918Y-72150500D01*
X129218913Y-72121658D01*
X129355495Y-72065084D01*
X129355495Y-72065083D01*
X129355497Y-72065083D01*
X129398356Y-72036445D01*
X129478416Y-71982951D01*
X129582951Y-71878416D01*
X129665084Y-71755495D01*
X129721658Y-71618913D01*
X129750500Y-71473918D01*
X129750500Y-71326082D01*
X129721658Y-71181087D01*
X129677508Y-71074500D01*
X129665083Y-71044502D01*
X129606929Y-70957470D01*
X129582951Y-70921584D01*
X129478416Y-70817049D01*
X129453697Y-70800532D01*
X129355497Y-70734916D01*
X129249852Y-70691157D01*
X129218913Y-70678342D01*
X129218911Y-70678341D01*
X129218912Y-70678341D01*
X129073921Y-70649500D01*
X129073918Y-70649500D01*
X128926082Y-70649500D01*
X128926078Y-70649500D01*
X128781088Y-70678341D01*
X128644502Y-70734916D01*
X128521585Y-70817048D01*
X128521580Y-70817052D01*
X128417052Y-70921580D01*
X128417048Y-70921585D01*
X128334916Y-71044502D01*
X128278341Y-71181088D01*
X128249500Y-71326078D01*
X125440553Y-71326078D01*
X125421658Y-71231087D01*
X125365084Y-71094505D01*
X125365083Y-71094502D01*
X125299194Y-70995894D01*
X125282951Y-70971584D01*
X125178416Y-70867049D01*
X125148482Y-70847048D01*
X125055497Y-70784916D01*
X124934784Y-70734916D01*
X124918913Y-70728342D01*
X124918911Y-70728341D01*
X124918912Y-70728341D01*
X124773921Y-70699500D01*
X124773918Y-70699500D01*
X124626082Y-70699500D01*
X124626078Y-70699500D01*
X124481088Y-70728341D01*
X124344502Y-70784916D01*
X124221585Y-70867048D01*
X124221580Y-70867052D01*
X124117052Y-70971580D01*
X124117048Y-70971585D01*
X124034916Y-71094502D01*
X123978341Y-71231088D01*
X123949500Y-71376078D01*
X121785289Y-71376078D01*
X121882951Y-71278416D01*
X121965084Y-71155495D01*
X122021658Y-71018913D01*
X122050500Y-70873918D01*
X122050500Y-70726082D01*
X122021658Y-70581087D01*
X121965084Y-70444505D01*
X121965083Y-70444502D01*
X121915759Y-70370685D01*
X121882951Y-70321584D01*
X121778416Y-70217049D01*
X121689859Y-70157877D01*
X121655499Y-70134918D01*
X121655497Y-70134917D01*
X121655495Y-70134916D01*
X121518913Y-70078342D01*
X121518911Y-70078341D01*
X121518912Y-70078341D01*
X121373921Y-70049500D01*
X121373918Y-70049500D01*
X121226082Y-70049500D01*
X121226078Y-70049500D01*
X121081088Y-70078341D01*
X120944502Y-70134916D01*
X120821585Y-70217048D01*
X120821580Y-70217052D01*
X120717052Y-70321580D01*
X120717048Y-70321585D01*
X120634916Y-70444502D01*
X120578341Y-70581088D01*
X120549500Y-70726078D01*
X111787445Y-70726078D01*
X111728416Y-70667049D01*
X111702152Y-70649500D01*
X111605497Y-70584916D01*
X111499852Y-70541157D01*
X111468913Y-70528342D01*
X111468911Y-70528341D01*
X111468912Y-70528341D01*
X111323921Y-70499500D01*
X111323918Y-70499500D01*
X111176082Y-70499500D01*
X111176078Y-70499500D01*
X111031088Y-70528341D01*
X110894502Y-70584916D01*
X110771585Y-70667048D01*
X110771580Y-70667052D01*
X110667052Y-70771580D01*
X110667048Y-70771585D01*
X110584916Y-70894502D01*
X110528341Y-71031088D01*
X110499500Y-71176078D01*
X85660500Y-71176078D01*
X85660500Y-70041308D01*
X136629500Y-70041308D01*
X136629500Y-70218691D01*
X136664105Y-70392663D01*
X136664106Y-70392667D01*
X136731986Y-70556546D01*
X136731987Y-70556548D01*
X136830533Y-70704031D01*
X136830536Y-70704035D01*
X136955965Y-70829464D01*
X136955968Y-70829466D01*
X137103451Y-70928012D01*
X137103453Y-70928013D01*
X137267334Y-70995894D01*
X137441309Y-71030500D01*
X138097026Y-71030500D01*
X138171526Y-71050462D01*
X138226064Y-71105000D01*
X138246026Y-71179500D01*
X138226064Y-71254000D01*
X138226063Y-71254002D01*
X138221506Y-71261893D01*
X138221504Y-71261896D01*
X138181702Y-71330832D01*
X138157587Y-71372601D01*
X138124500Y-71496081D01*
X138124500Y-71623918D01*
X138157587Y-71747400D01*
X138221501Y-71858099D01*
X138221504Y-71858104D01*
X138311896Y-71948496D01*
X138340534Y-71965030D01*
X138422599Y-72012412D01*
X138422601Y-72012412D01*
X138422604Y-72012414D01*
X138546083Y-72045500D01*
X138673917Y-72045500D01*
X138797396Y-72012414D01*
X138797398Y-72012412D01*
X138797400Y-72012412D01*
X138826034Y-71995879D01*
X138908104Y-71948496D01*
X138998496Y-71858104D01*
X139062414Y-71747396D01*
X139095500Y-71623917D01*
X139095500Y-71496083D01*
X139062414Y-71372604D01*
X139062412Y-71372601D01*
X139062412Y-71372599D01*
X139008036Y-71278419D01*
X138998496Y-71261896D01*
X138937085Y-71200485D01*
X138898523Y-71133693D01*
X138898523Y-71056565D01*
X138937087Y-70989770D01*
X138985423Y-70957472D01*
X139056547Y-70928013D01*
X139204035Y-70829464D01*
X139329464Y-70704035D01*
X139428013Y-70556547D01*
X139495894Y-70392666D01*
X139530500Y-70218691D01*
X139530500Y-70041309D01*
X139495894Y-69867334D01*
X139428013Y-69703453D01*
X139329464Y-69555965D01*
X139204035Y-69430536D01*
X139103804Y-69363563D01*
X139056548Y-69331987D01*
X139056546Y-69331986D01*
X138892667Y-69264106D01*
X138892663Y-69264105D01*
X138718691Y-69229500D01*
X137441309Y-69229500D01*
X137267336Y-69264105D01*
X137267332Y-69264106D01*
X137103453Y-69331986D01*
X137103451Y-69331987D01*
X136955968Y-69430533D01*
X136955963Y-69430537D01*
X136830537Y-69555963D01*
X136830533Y-69555968D01*
X136731987Y-69703451D01*
X136731986Y-69703453D01*
X136664106Y-69867332D01*
X136664105Y-69867336D01*
X136629500Y-70041308D01*
X85660500Y-70041308D01*
X85660500Y-67526078D01*
X111999500Y-67526078D01*
X111999500Y-67673921D01*
X112028341Y-67818911D01*
X112084916Y-67955497D01*
X112150532Y-68053697D01*
X112167049Y-68078416D01*
X112271584Y-68182951D01*
X112320685Y-68215759D01*
X112394502Y-68265083D01*
X112425444Y-68277899D01*
X112531087Y-68321658D01*
X112676082Y-68350500D01*
X112676086Y-68350500D01*
X112823914Y-68350500D01*
X112823918Y-68350500D01*
X112968913Y-68321658D01*
X113105495Y-68265084D01*
X113105495Y-68265083D01*
X113105497Y-68265083D01*
X113130213Y-68248567D01*
X113228416Y-68182951D01*
X113332951Y-68078416D01*
X113415084Y-67955495D01*
X113471658Y-67818913D01*
X113500500Y-67673918D01*
X113500500Y-67526082D01*
X113471658Y-67381087D01*
X113415084Y-67244505D01*
X113415083Y-67244502D01*
X113362016Y-67165083D01*
X113332951Y-67121584D01*
X113228416Y-67017049D01*
X113203697Y-67000532D01*
X113105497Y-66934916D01*
X112999852Y-66891157D01*
X112968913Y-66878342D01*
X112968911Y-66878341D01*
X112968912Y-66878341D01*
X112823921Y-66849500D01*
X112823918Y-66849500D01*
X112676082Y-66849500D01*
X112676078Y-66849500D01*
X112531088Y-66878341D01*
X112394502Y-66934916D01*
X112271585Y-67017048D01*
X112271580Y-67017052D01*
X112167052Y-67121580D01*
X112167048Y-67121585D01*
X112084916Y-67244502D01*
X112028341Y-67381088D01*
X111999500Y-67526078D01*
X85660500Y-67526078D01*
X85660500Y-66676078D01*
X114249500Y-66676078D01*
X114249500Y-66823921D01*
X114278341Y-66968911D01*
X114334916Y-67105497D01*
X114400532Y-67203697D01*
X114417049Y-67228416D01*
X114521584Y-67332951D01*
X114570685Y-67365759D01*
X114644502Y-67415083D01*
X114675444Y-67427899D01*
X114781087Y-67471658D01*
X114926082Y-67500500D01*
X114926086Y-67500500D01*
X115073914Y-67500500D01*
X115073918Y-67500500D01*
X115218913Y-67471658D01*
X115355495Y-67415084D01*
X115355495Y-67415083D01*
X115355497Y-67415083D01*
X115380213Y-67398567D01*
X115478416Y-67332951D01*
X115582951Y-67228416D01*
X115665084Y-67105495D01*
X115721658Y-66968913D01*
X115750500Y-66823918D01*
X115750500Y-66676082D01*
X115721658Y-66531087D01*
X115681007Y-66432947D01*
X115678162Y-66426078D01*
X132499500Y-66426078D01*
X132499500Y-66573921D01*
X132528341Y-66718911D01*
X132584916Y-66855497D01*
X132637983Y-66934916D01*
X132667049Y-66978416D01*
X132771584Y-67082951D01*
X132805324Y-67105495D01*
X132894502Y-67165083D01*
X132925444Y-67177899D01*
X133031087Y-67221658D01*
X133176082Y-67250500D01*
X133176086Y-67250500D01*
X133323914Y-67250500D01*
X133323918Y-67250500D01*
X133468913Y-67221658D01*
X133605495Y-67165084D01*
X133605495Y-67165083D01*
X133605497Y-67165083D01*
X133630213Y-67148567D01*
X133728416Y-67082951D01*
X133832951Y-66978416D01*
X133915084Y-66855495D01*
X133971658Y-66718913D01*
X134000500Y-66573918D01*
X134000500Y-66426082D01*
X133971658Y-66281087D01*
X133915084Y-66144505D01*
X133915083Y-66144502D01*
X133864574Y-66068911D01*
X133832951Y-66021584D01*
X133728416Y-65917049D01*
X133703697Y-65900532D01*
X133605497Y-65834916D01*
X133499852Y-65791157D01*
X133468913Y-65778342D01*
X133468911Y-65778341D01*
X133468912Y-65778341D01*
X133323921Y-65749500D01*
X133323918Y-65749500D01*
X133176082Y-65749500D01*
X133176078Y-65749500D01*
X133031088Y-65778341D01*
X132894502Y-65834916D01*
X132771585Y-65917048D01*
X132771580Y-65917052D01*
X132667052Y-66021580D01*
X132667048Y-66021585D01*
X132584916Y-66144502D01*
X132528341Y-66281088D01*
X132499500Y-66426078D01*
X115678162Y-66426078D01*
X115665083Y-66394502D01*
X115589301Y-66281088D01*
X115582951Y-66271584D01*
X115478416Y-66167049D01*
X115453697Y-66150532D01*
X115355497Y-66084916D01*
X115249852Y-66041157D01*
X115218913Y-66028342D01*
X115218911Y-66028341D01*
X115218912Y-66028341D01*
X115073921Y-65999500D01*
X115073918Y-65999500D01*
X114926082Y-65999500D01*
X114926078Y-65999500D01*
X114781088Y-66028341D01*
X114644502Y-66084916D01*
X114521585Y-66167048D01*
X114521580Y-66167052D01*
X114417052Y-66271580D01*
X114417048Y-66271585D01*
X114334916Y-66394502D01*
X114278341Y-66531088D01*
X114249500Y-66676078D01*
X85660500Y-66676078D01*
X85660500Y-65776078D01*
X87749500Y-65776078D01*
X87749500Y-65923921D01*
X87778341Y-66068911D01*
X87834916Y-66205497D01*
X87900532Y-66303697D01*
X87917049Y-66328416D01*
X88021584Y-66432951D01*
X88070685Y-66465759D01*
X88144502Y-66515083D01*
X88175444Y-66527899D01*
X88281087Y-66571658D01*
X88426082Y-66600500D01*
X88426086Y-66600500D01*
X88573914Y-66600500D01*
X88573918Y-66600500D01*
X88718913Y-66571658D01*
X88855495Y-66515084D01*
X88855495Y-66515083D01*
X88855497Y-66515083D01*
X88914316Y-66475781D01*
X88978416Y-66432951D01*
X89082951Y-66328416D01*
X89165084Y-66205495D01*
X89221658Y-66068913D01*
X89250500Y-65923918D01*
X89250500Y-65776082D01*
X89221658Y-65631087D01*
X89165084Y-65494505D01*
X89165083Y-65494502D01*
X89115759Y-65420685D01*
X89082951Y-65371584D01*
X88978416Y-65267049D01*
X88953697Y-65250532D01*
X88855497Y-65184916D01*
X88749852Y-65141157D01*
X88718913Y-65128342D01*
X88718911Y-65128341D01*
X88718912Y-65128341D01*
X88573921Y-65099500D01*
X88573918Y-65099500D01*
X88426082Y-65099500D01*
X88426078Y-65099500D01*
X88281088Y-65128341D01*
X88144502Y-65184916D01*
X88021585Y-65267048D01*
X88021580Y-65267052D01*
X87917052Y-65371580D01*
X87917048Y-65371585D01*
X87834916Y-65494502D01*
X87778341Y-65631088D01*
X87749500Y-65776078D01*
X85660500Y-65776078D01*
X85660500Y-63926078D01*
X116999500Y-63926078D01*
X116999500Y-64073921D01*
X117028341Y-64218911D01*
X117084916Y-64355497D01*
X117150532Y-64453697D01*
X117167049Y-64478416D01*
X117271584Y-64582951D01*
X117320685Y-64615759D01*
X117394502Y-64665083D01*
X117425444Y-64677899D01*
X117531087Y-64721658D01*
X117676082Y-64750500D01*
X117676086Y-64750500D01*
X117823914Y-64750500D01*
X117823918Y-64750500D01*
X117968913Y-64721658D01*
X118105495Y-64665084D01*
X118105495Y-64665083D01*
X118105497Y-64665083D01*
X118130213Y-64648567D01*
X118228416Y-64582951D01*
X118332951Y-64478416D01*
X118415084Y-64355495D01*
X118471658Y-64218913D01*
X118500500Y-64073918D01*
X118500500Y-63926082D01*
X118471658Y-63781087D01*
X118415084Y-63644505D01*
X118415083Y-63644502D01*
X118365759Y-63570685D01*
X118332951Y-63521584D01*
X118228416Y-63417049D01*
X118203697Y-63400532D01*
X118105497Y-63334916D01*
X117999852Y-63291157D01*
X117968913Y-63278342D01*
X117968911Y-63278341D01*
X117968912Y-63278341D01*
X117823921Y-63249500D01*
X117823918Y-63249500D01*
X117676082Y-63249500D01*
X117676078Y-63249500D01*
X117531088Y-63278341D01*
X117394502Y-63334916D01*
X117271585Y-63417048D01*
X117271580Y-63417052D01*
X117167052Y-63521580D01*
X117167048Y-63521585D01*
X117084916Y-63644502D01*
X117028341Y-63781088D01*
X116999500Y-63926078D01*
X85660500Y-63926078D01*
X85660500Y-61776078D01*
X136249500Y-61776078D01*
X136249500Y-61923921D01*
X136278341Y-62068911D01*
X136334916Y-62205497D01*
X136400532Y-62303697D01*
X136417049Y-62328416D01*
X136521584Y-62432951D01*
X136570685Y-62465759D01*
X136644502Y-62515083D01*
X136675444Y-62527899D01*
X136781087Y-62571658D01*
X136926082Y-62600500D01*
X136926086Y-62600500D01*
X137073914Y-62600500D01*
X137073918Y-62600500D01*
X137218913Y-62571658D01*
X137355495Y-62515084D01*
X137355495Y-62515083D01*
X137355497Y-62515083D01*
X137380213Y-62498567D01*
X137478416Y-62432951D01*
X137544641Y-62366726D01*
X137611436Y-62328162D01*
X137688564Y-62328162D01*
X137755359Y-62366726D01*
X137821584Y-62432951D01*
X137870685Y-62465759D01*
X137944502Y-62515083D01*
X137975444Y-62527899D01*
X138081087Y-62571658D01*
X138226082Y-62600500D01*
X138226086Y-62600500D01*
X138373914Y-62600500D01*
X138373918Y-62600500D01*
X138518913Y-62571658D01*
X138655495Y-62515084D01*
X138655495Y-62515083D01*
X138655497Y-62515083D01*
X138680213Y-62498567D01*
X138778416Y-62432951D01*
X138882951Y-62328416D01*
X138965084Y-62205495D01*
X139021658Y-62068913D01*
X139050500Y-61923918D01*
X139050500Y-61776082D01*
X139021658Y-61631087D01*
X138965084Y-61494505D01*
X138965083Y-61494502D01*
X138915759Y-61420685D01*
X138882951Y-61371584D01*
X138778416Y-61267049D01*
X138753697Y-61250532D01*
X138655497Y-61184916D01*
X138549852Y-61141157D01*
X138518913Y-61128342D01*
X138518911Y-61128341D01*
X138518912Y-61128341D01*
X138373921Y-61099500D01*
X138373918Y-61099500D01*
X138226082Y-61099500D01*
X138226078Y-61099500D01*
X138081088Y-61128341D01*
X137944502Y-61184916D01*
X137821585Y-61267048D01*
X137821580Y-61267052D01*
X137755359Y-61333274D01*
X137688564Y-61371838D01*
X137611436Y-61371838D01*
X137544641Y-61333274D01*
X137478419Y-61267052D01*
X137478416Y-61267049D01*
X137453697Y-61250532D01*
X137355497Y-61184916D01*
X137249852Y-61141157D01*
X137218913Y-61128342D01*
X137218911Y-61128341D01*
X137218912Y-61128341D01*
X137073921Y-61099500D01*
X137073918Y-61099500D01*
X136926082Y-61099500D01*
X136926078Y-61099500D01*
X136781088Y-61128341D01*
X136644502Y-61184916D01*
X136521585Y-61267048D01*
X136521580Y-61267052D01*
X136417052Y-61371580D01*
X136417048Y-61371585D01*
X136334916Y-61494502D01*
X136278341Y-61631088D01*
X136249500Y-61776078D01*
X85660500Y-61776078D01*
X85660500Y-56326078D01*
X117749500Y-56326078D01*
X117749500Y-56473921D01*
X117778341Y-56618911D01*
X117834916Y-56755497D01*
X117900532Y-56853697D01*
X117917049Y-56878416D01*
X118021584Y-56982951D01*
X118070685Y-57015759D01*
X118144502Y-57065083D01*
X118175444Y-57077899D01*
X118281087Y-57121658D01*
X118426082Y-57150500D01*
X118426086Y-57150500D01*
X118573914Y-57150500D01*
X118573918Y-57150500D01*
X118718913Y-57121658D01*
X118855495Y-57065084D01*
X118855495Y-57065083D01*
X118855497Y-57065083D01*
X118880213Y-57048567D01*
X118978416Y-56982951D01*
X119082951Y-56878416D01*
X119165084Y-56755495D01*
X119221658Y-56618913D01*
X119250500Y-56473918D01*
X119250500Y-56326082D01*
X119221658Y-56181087D01*
X119165084Y-56044505D01*
X119165083Y-56044502D01*
X119115759Y-55970685D01*
X119082951Y-55921584D01*
X118978416Y-55817049D01*
X118953697Y-55800532D01*
X118855497Y-55734916D01*
X118749852Y-55691157D01*
X118718913Y-55678342D01*
X118718911Y-55678341D01*
X118718912Y-55678341D01*
X118573921Y-55649500D01*
X118573918Y-55649500D01*
X118426082Y-55649500D01*
X118426078Y-55649500D01*
X118281088Y-55678341D01*
X118144502Y-55734916D01*
X118021585Y-55817048D01*
X118021580Y-55817052D01*
X117917052Y-55921580D01*
X117917048Y-55921585D01*
X117834916Y-56044502D01*
X117778341Y-56181088D01*
X117749500Y-56326078D01*
X85660500Y-56326078D01*
X85660500Y-54253905D01*
X85660704Y-54246108D01*
X85662173Y-54218075D01*
X85665699Y-54150796D01*
X87739500Y-54150796D01*
X87739500Y-54349204D01*
X87767884Y-54528416D01*
X87770537Y-54545167D01*
X87831847Y-54733860D01*
X87831851Y-54733869D01*
X87921924Y-54910649D01*
X88038541Y-55071157D01*
X88038544Y-55071161D01*
X88178839Y-55211456D01*
X88178842Y-55211458D01*
X88339350Y-55328075D01*
X88339354Y-55328077D01*
X88516136Y-55418151D01*
X88704832Y-55479463D01*
X88900796Y-55510500D01*
X88900801Y-55510500D01*
X89099199Y-55510500D01*
X89099204Y-55510500D01*
X89295168Y-55479463D01*
X89483864Y-55418151D01*
X89660646Y-55328077D01*
X89821161Y-55211456D01*
X89961456Y-55071161D01*
X90078077Y-54910646D01*
X90168151Y-54733864D01*
X90229463Y-54545168D01*
X90260500Y-54349204D01*
X90260500Y-54150796D01*
X90235361Y-53992069D01*
X90235361Y-53992066D01*
X90232829Y-53976078D01*
X109199500Y-53976078D01*
X109199500Y-54123921D01*
X109228341Y-54268911D01*
X109284916Y-54405497D01*
X109350532Y-54503697D01*
X109367049Y-54528416D01*
X109471584Y-54632951D01*
X109520685Y-54665759D01*
X109594502Y-54715083D01*
X109625444Y-54727899D01*
X109731087Y-54771658D01*
X109876082Y-54800500D01*
X109876086Y-54800500D01*
X110023914Y-54800500D01*
X110023918Y-54800500D01*
X110168913Y-54771658D01*
X110305495Y-54715084D01*
X110305495Y-54715083D01*
X110305497Y-54715083D01*
X110330213Y-54698567D01*
X110428416Y-54632951D01*
X110532951Y-54528416D01*
X110615084Y-54405495D01*
X110671658Y-54268913D01*
X110695154Y-54150796D01*
X138739500Y-54150796D01*
X138739500Y-54349204D01*
X138767884Y-54528416D01*
X138770537Y-54545167D01*
X138831847Y-54733860D01*
X138831851Y-54733869D01*
X138921924Y-54910649D01*
X139038541Y-55071157D01*
X139038544Y-55071161D01*
X139178839Y-55211456D01*
X139178842Y-55211458D01*
X139339350Y-55328075D01*
X139339354Y-55328077D01*
X139516136Y-55418151D01*
X139704832Y-55479463D01*
X139900796Y-55510500D01*
X139900801Y-55510500D01*
X140099199Y-55510500D01*
X140099204Y-55510500D01*
X140295168Y-55479463D01*
X140483864Y-55418151D01*
X140660646Y-55328077D01*
X140821161Y-55211456D01*
X140961456Y-55071161D01*
X141078077Y-54910646D01*
X141168151Y-54733864D01*
X141229463Y-54545168D01*
X141260500Y-54349204D01*
X141260500Y-54150796D01*
X141229463Y-53954832D01*
X141168151Y-53766136D01*
X141078077Y-53589354D01*
X141078075Y-53589350D01*
X140961458Y-53428842D01*
X140961456Y-53428839D01*
X140821161Y-53288544D01*
X140821157Y-53288541D01*
X140660649Y-53171924D01*
X140483869Y-53081851D01*
X140483860Y-53081847D01*
X140352520Y-53039172D01*
X140295168Y-53020537D01*
X140099204Y-52989500D01*
X139900796Y-52989500D01*
X139704832Y-53020537D01*
X139516139Y-53081847D01*
X139516130Y-53081851D01*
X139339350Y-53171924D01*
X139178842Y-53288541D01*
X139038541Y-53428842D01*
X138921924Y-53589350D01*
X138831851Y-53766130D01*
X138831847Y-53766139D01*
X138770537Y-53954832D01*
X138739500Y-54150796D01*
X110695154Y-54150796D01*
X110700500Y-54123918D01*
X110700500Y-53976082D01*
X110671658Y-53831087D01*
X110615084Y-53694505D01*
X110615083Y-53694502D01*
X110565759Y-53620685D01*
X110532951Y-53571584D01*
X110428416Y-53467049D01*
X110403697Y-53450532D01*
X110305497Y-53384916D01*
X110189907Y-53337038D01*
X110168913Y-53328342D01*
X110168911Y-53328341D01*
X110168912Y-53328341D01*
X110023921Y-53299500D01*
X110023918Y-53299500D01*
X109876082Y-53299500D01*
X109876078Y-53299500D01*
X109731088Y-53328341D01*
X109594502Y-53384916D01*
X109471585Y-53467048D01*
X109471580Y-53467052D01*
X109367052Y-53571580D01*
X109367048Y-53571585D01*
X109284916Y-53694502D01*
X109228341Y-53831088D01*
X109199500Y-53976078D01*
X90232829Y-53976078D01*
X90229465Y-53954842D01*
X90229463Y-53954833D01*
X90189255Y-53831088D01*
X90168151Y-53766136D01*
X90078077Y-53589354D01*
X90078075Y-53589350D01*
X89961458Y-53428842D01*
X89961456Y-53428839D01*
X89821161Y-53288544D01*
X89821157Y-53288541D01*
X89660649Y-53171924D01*
X89483869Y-53081851D01*
X89483860Y-53081847D01*
X89352520Y-53039172D01*
X89295168Y-53020537D01*
X89099204Y-52989500D01*
X88900796Y-52989500D01*
X88704832Y-53020537D01*
X88516139Y-53081847D01*
X88516130Y-53081851D01*
X88339350Y-53171924D01*
X88178842Y-53288541D01*
X88038541Y-53428842D01*
X87921924Y-53589350D01*
X87831851Y-53766130D01*
X87831847Y-53766139D01*
X87770537Y-53954832D01*
X87739500Y-54150796D01*
X85665699Y-54150796D01*
X85678385Y-53908722D01*
X85680015Y-53893216D01*
X85689856Y-53831087D01*
X85732255Y-53563383D01*
X85735498Y-53548132D01*
X85821928Y-53225571D01*
X85826738Y-53210766D01*
X85946422Y-52898977D01*
X85952755Y-52884754D01*
X86052053Y-52689870D01*
X114139500Y-52689870D01*
X114139500Y-52810129D01*
X114162960Y-52928073D01*
X114162961Y-52928077D01*
X114208978Y-53039172D01*
X114208986Y-53039187D01*
X114275791Y-53139167D01*
X114275794Y-53139171D01*
X114360829Y-53224206D01*
X114360832Y-53224208D01*
X114460812Y-53291013D01*
X114460814Y-53291014D01*
X114460820Y-53291018D01*
X114571924Y-53337039D01*
X114689871Y-53360500D01*
X114810129Y-53360500D01*
X114928076Y-53337039D01*
X115039180Y-53291018D01*
X115139171Y-53224206D01*
X115224206Y-53139171D01*
X115291018Y-53039180D01*
X115337039Y-52928076D01*
X115360500Y-52810129D01*
X115360500Y-52689871D01*
X115360500Y-52689870D01*
X117139500Y-52689870D01*
X117139500Y-52810129D01*
X117162960Y-52928073D01*
X117162961Y-52928077D01*
X117208978Y-53039172D01*
X117208986Y-53039187D01*
X117275791Y-53139167D01*
X117275794Y-53139171D01*
X117360829Y-53224206D01*
X117360832Y-53224208D01*
X117460812Y-53291013D01*
X117460814Y-53291014D01*
X117460820Y-53291018D01*
X117571924Y-53337039D01*
X117689871Y-53360500D01*
X117810129Y-53360500D01*
X117928076Y-53337039D01*
X118039180Y-53291018D01*
X118139171Y-53224206D01*
X118224206Y-53139171D01*
X118291018Y-53039180D01*
X118337039Y-52928076D01*
X118360500Y-52810129D01*
X118360500Y-52689871D01*
X118337039Y-52571924D01*
X118291018Y-52460820D01*
X118224206Y-52360829D01*
X118139171Y-52275794D01*
X118139167Y-52275791D01*
X118039187Y-52208986D01*
X118039181Y-52208983D01*
X118039180Y-52208982D01*
X118039177Y-52208981D01*
X118039172Y-52208978D01*
X117928077Y-52162961D01*
X117928073Y-52162960D01*
X117810129Y-52139500D01*
X117689871Y-52139500D01*
X117571926Y-52162960D01*
X117571922Y-52162961D01*
X117460827Y-52208978D01*
X117460812Y-52208986D01*
X117360832Y-52275791D01*
X117360825Y-52275797D01*
X117275797Y-52360825D01*
X117275791Y-52360832D01*
X117208986Y-52460812D01*
X117208978Y-52460827D01*
X117162961Y-52571922D01*
X117162960Y-52571926D01*
X117139500Y-52689870D01*
X115360500Y-52689870D01*
X115337039Y-52571924D01*
X115291018Y-52460820D01*
X115224206Y-52360829D01*
X115139171Y-52275794D01*
X115139167Y-52275791D01*
X115039187Y-52208986D01*
X115039181Y-52208983D01*
X115039180Y-52208982D01*
X115039177Y-52208981D01*
X115039172Y-52208978D01*
X114928077Y-52162961D01*
X114928073Y-52162960D01*
X114810129Y-52139500D01*
X114689871Y-52139500D01*
X114571926Y-52162960D01*
X114571922Y-52162961D01*
X114460827Y-52208978D01*
X114460812Y-52208986D01*
X114360832Y-52275791D01*
X114360825Y-52275797D01*
X114275797Y-52360825D01*
X114275791Y-52360832D01*
X114208986Y-52460812D01*
X114208978Y-52460827D01*
X114162961Y-52571922D01*
X114162960Y-52571926D01*
X114139500Y-52689870D01*
X86052053Y-52689870D01*
X86104365Y-52587203D01*
X86112162Y-52573699D01*
X86294042Y-52293629D01*
X86303189Y-52281038D01*
X86513363Y-52021494D01*
X86523781Y-52009924D01*
X86759924Y-51773781D01*
X86771494Y-51763363D01*
X87031038Y-51553189D01*
X87043629Y-51544042D01*
X87323702Y-51362159D01*
X87337201Y-51354366D01*
X87634754Y-51202755D01*
X87648977Y-51196422D01*
X87960766Y-51076738D01*
X87975571Y-51071928D01*
X88298135Y-50985497D01*
X88313383Y-50982255D01*
X88643221Y-50930014D01*
X88658722Y-50928385D01*
X88996107Y-50910703D01*
X89003905Y-50910500D01*
X89036633Y-50910500D01*
X91712513Y-50910500D01*
X91787013Y-50930462D01*
G37*
%TD.AperFunction*%
%TD*%
M02*
