%TF.GenerationSoftware,KiCad,Pcbnew,9.0.6*%
%TF.CreationDate,2025-12-09T00:58:21-06:00*%
%TF.ProjectId,Mixed_Signal_generator_analyzer,4d697865-645f-4536-9967-6e616c5f6765,rev?*%
%TF.SameCoordinates,Original*%
%TF.FileFunction,Soldermask,Top*%
%TF.FilePolarity,Negative*%
%FSLAX46Y46*%
G04 Gerber Fmt 4.6, Leading zero omitted, Abs format (unit mm)*
G04 Created by KiCad (PCBNEW 9.0.6) date 2025-12-09 00:58:21*
%MOMM*%
%LPD*%
G01*
G04 APERTURE LIST*
G04 Aperture macros list*
%AMRoundRect*
0 Rectangle with rounded corners*
0 $1 Rounding radius*
0 $2 $3 $4 $5 $6 $7 $8 $9 X,Y pos of 4 corners*
0 Add a 4 corners polygon primitive as box body*
4,1,4,$2,$3,$4,$5,$6,$7,$8,$9,$2,$3,0*
0 Add four circle primitives for the rounded corners*
1,1,$1+$1,$2,$3*
1,1,$1+$1,$4,$5*
1,1,$1+$1,$6,$7*
1,1,$1+$1,$8,$9*
0 Add four rect primitives between the rounded corners*
20,1,$1+$1,$2,$3,$4,$5,0*
20,1,$1+$1,$4,$5,$6,$7,0*
20,1,$1+$1,$6,$7,$8,$9,0*
20,1,$1+$1,$8,$9,$2,$3,0*%
G04 Aperture macros list end*
%ADD10C,0.010000*%
%ADD11RoundRect,0.060500X0.181500X-0.776500X0.181500X0.776500X-0.181500X0.776500X-0.181500X-0.776500X0*%
%ADD12O,0.299999X1.699999*%
%ADD13RoundRect,0.250000X-0.475000X0.250000X-0.475000X-0.250000X0.475000X-0.250000X0.475000X0.250000X0*%
%ADD14RoundRect,0.140000X-0.170000X0.140000X-0.170000X-0.140000X0.170000X-0.140000X0.170000X0.140000X0*%
%ADD15RoundRect,0.225000X0.225000X0.250000X-0.225000X0.250000X-0.225000X-0.250000X0.225000X-0.250000X0*%
%ADD16RoundRect,0.147500X0.147500X0.172500X-0.147500X0.172500X-0.147500X-0.172500X0.147500X-0.172500X0*%
%ADD17RoundRect,0.140000X-0.140000X-0.170000X0.140000X-0.170000X0.140000X0.170000X-0.140000X0.170000X0*%
%ADD18RoundRect,0.135000X0.135000X0.185000X-0.135000X0.185000X-0.135000X-0.185000X0.135000X-0.185000X0*%
%ADD19RoundRect,0.112500X-0.187500X-0.112500X0.187500X-0.112500X0.187500X0.112500X-0.187500X0.112500X0*%
%ADD20RoundRect,0.140000X0.170000X-0.140000X0.170000X0.140000X-0.170000X0.140000X-0.170000X-0.140000X0*%
%ADD21RoundRect,0.140000X0.140000X0.170000X-0.140000X0.170000X-0.140000X-0.170000X0.140000X-0.170000X0*%
%ADD22RoundRect,0.135000X-0.185000X0.135000X-0.185000X-0.135000X0.185000X-0.135000X0.185000X0.135000X0*%
%ADD23RoundRect,0.225000X-0.250000X0.225000X-0.250000X-0.225000X0.250000X-0.225000X0.250000X0.225000X0*%
%ADD24RoundRect,0.150000X0.150000X-0.512500X0.150000X0.512500X-0.150000X0.512500X-0.150000X-0.512500X0*%
%ADD25RoundRect,0.250000X0.250000X0.475000X-0.250000X0.475000X-0.250000X-0.475000X0.250000X-0.475000X0*%
%ADD26RoundRect,0.135000X-0.135000X-0.185000X0.135000X-0.185000X0.135000X0.185000X-0.135000X0.185000X0*%
%ADD27R,0.740000X2.400000*%
%ADD28C,2.200000*%
%ADD29C,0.650000*%
%ADD30R,1.450000X0.600000*%
%ADD31R,1.450000X0.300000*%
%ADD32O,2.100000X1.000000*%
%ADD33O,1.600000X1.000000*%
%ADD34RoundRect,0.135000X0.185000X-0.135000X0.185000X0.135000X-0.185000X0.135000X-0.185000X-0.135000X0*%
%ADD35R,2.565400X3.302000*%
%ADD36RoundRect,0.155000X0.155000X-0.212500X0.155000X0.212500X-0.155000X0.212500X-0.155000X-0.212500X0*%
%ADD37R,1.400000X1.400000*%
%ADD38C,1.400000*%
%ADD39C,3.000000*%
%ADD40RoundRect,0.112500X-0.112500X0.187500X-0.112500X-0.187500X0.112500X-0.187500X0.112500X0.187500X0*%
%ADD41R,1.100000X1.500000*%
%ADD42RoundRect,0.225000X-0.225000X-0.250000X0.225000X-0.250000X0.225000X0.250000X-0.225000X0.250000X0*%
%ADD43RoundRect,0.250000X0.475000X-0.250000X0.475000X0.250000X-0.475000X0.250000X-0.475000X-0.250000X0*%
%ADD44RoundRect,0.250000X-0.450000X0.262500X-0.450000X-0.262500X0.450000X-0.262500X0.450000X0.262500X0*%
%ADD45RoundRect,0.150000X0.587500X0.150000X-0.587500X0.150000X-0.587500X-0.150000X0.587500X-0.150000X0*%
%ADD46RoundRect,0.121000X-0.761000X-0.121000X0.761000X-0.121000X0.761000X0.121000X-0.761000X0.121000X0*%
%ADD47RoundRect,0.121000X-0.121000X-0.761000X0.121000X-0.761000X0.121000X0.761000X-0.121000X0.761000X0*%
%ADD48RoundRect,0.112500X0.112500X-0.187500X0.112500X0.187500X-0.112500X0.187500X-0.112500X-0.187500X0*%
%ADD49RoundRect,0.150000X-0.512500X-0.150000X0.512500X-0.150000X0.512500X0.150000X-0.512500X0.150000X0*%
%ADD50RoundRect,0.155000X-0.155000X0.212500X-0.155000X-0.212500X0.155000X-0.212500X0.155000X0.212500X0*%
%ADD51RoundRect,0.150000X0.512500X0.150000X-0.512500X0.150000X-0.512500X-0.150000X0.512500X-0.150000X0*%
%ADD52O,3.904000X2.404000*%
%ADD53RoundRect,0.225000X0.250000X-0.225000X0.250000X0.225000X-0.250000X0.225000X-0.250000X-0.225000X0*%
%ADD54RoundRect,0.102000X0.850000X-0.400000X0.850000X0.400000X-0.850000X0.400000X-0.850000X-0.400000X0*%
%ADD55RoundRect,0.102000X0.550000X-0.400000X0.550000X0.400000X-0.550000X0.400000X-0.550000X-0.400000X0*%
%ADD56RoundRect,0.218750X0.256250X-0.218750X0.256250X0.218750X-0.256250X0.218750X-0.256250X-0.218750X0*%
%ADD57RoundRect,0.218750X0.218750X0.256250X-0.218750X0.256250X-0.218750X-0.256250X0.218750X-0.256250X0*%
%ADD58RoundRect,0.155000X-0.212500X-0.155000X0.212500X-0.155000X0.212500X0.155000X-0.212500X0.155000X0*%
%ADD59RoundRect,0.250000X0.450000X0.350000X-0.450000X0.350000X-0.450000X-0.350000X0.450000X-0.350000X0*%
%ADD60C,0.900000*%
%ADD61RoundRect,0.102000X0.350000X0.750000X-0.350000X0.750000X-0.350000X-0.750000X0.350000X-0.750000X0*%
%ADD62RoundRect,0.102000X0.500000X0.400000X-0.500000X0.400000X-0.500000X-0.400000X0.500000X-0.400000X0*%
G04 APERTURE END LIST*
D10*
%TO.C,U1*%
X114300000Y-97275000D02*
X112720670Y-97275000D01*
X112720670Y-96221840D01*
X114300000Y-96221840D01*
X114300000Y-97275000D01*
G36*
X114300000Y-97275000D02*
G01*
X112720670Y-97275000D01*
X112720670Y-96221840D01*
X114300000Y-96221840D01*
X114300000Y-97275000D01*
G37*
X114300000Y-98775000D02*
X112723580Y-98775000D01*
X112723580Y-97724732D01*
X114300000Y-97724732D01*
X114300000Y-98775000D01*
G36*
X114300000Y-98775000D02*
G01*
X112723580Y-98775000D01*
X112723580Y-97724732D01*
X114300000Y-97724732D01*
X114300000Y-98775000D01*
G37*
X114300000Y-100275000D02*
X112719920Y-100275000D01*
X112719920Y-99226784D01*
X114300000Y-99226784D01*
X114300000Y-100275000D01*
G36*
X114300000Y-100275000D02*
G01*
X112719920Y-100275000D01*
X112719920Y-99226784D01*
X114300000Y-99226784D01*
X114300000Y-100275000D01*
G37*
%TD*%
D11*
%TO.C,U9*%
X98480000Y-94559999D03*
X98980000Y-94559999D03*
X99480000Y-94559999D03*
X99980000Y-94559999D03*
X100480000Y-94559999D03*
X100480000Y-90259999D03*
X99980000Y-90259999D03*
X99480000Y-90259999D03*
X98980000Y-90259999D03*
X98480000Y-90259999D03*
%TD*%
D12*
%TO.C,U11*%
X128549999Y-95049998D03*
X129049998Y-95049998D03*
X129550000Y-95049998D03*
X130049999Y-95049998D03*
X130550001Y-95049998D03*
X130550001Y-90949999D03*
X130049999Y-90949999D03*
X129550000Y-90949999D03*
X129049998Y-90949999D03*
X128549999Y-90949999D03*
%TD*%
D13*
%TO.C,C8*%
X134950000Y-61850000D03*
X134950000Y-63750000D03*
%TD*%
D14*
%TO.C,C15*%
X122000000Y-71770000D03*
X122000000Y-72730000D03*
%TD*%
D15*
%TO.C,C38*%
X99280000Y-86797794D03*
X97730000Y-86797794D03*
%TD*%
D16*
%TO.C,L1*%
X133997500Y-76910000D03*
X133027500Y-76910000D03*
%TD*%
D17*
%TO.C,C31*%
X98800000Y-98150000D03*
X99760000Y-98150000D03*
%TD*%
D18*
%TO.C,R26*%
X96790000Y-104250000D03*
X95770000Y-104250000D03*
%TD*%
D19*
%TO.C,D4*%
X105200000Y-61000000D03*
X107300000Y-61000000D03*
%TD*%
D20*
%TO.C,C17*%
X109958800Y-72254200D03*
X109958800Y-71294200D03*
%TD*%
D18*
%TO.C,R19*%
X103760000Y-62600000D03*
X102740000Y-62600000D03*
%TD*%
D19*
%TO.C,D9*%
X127700000Y-113250000D03*
X129800000Y-113250000D03*
%TD*%
D21*
%TO.C,C18*%
X106078800Y-72690400D03*
X105118800Y-72690400D03*
%TD*%
D22*
%TO.C,R36*%
X130500000Y-84990000D03*
X130500000Y-86010000D03*
%TD*%
D20*
%TO.C,C43*%
X125850000Y-105955000D03*
X125850000Y-104995000D03*
%TD*%
D15*
%TO.C,C41*%
X129325000Y-87500000D03*
X127775000Y-87500000D03*
%TD*%
D23*
%TO.C,C2*%
X133412500Y-78275000D03*
X133412500Y-79825000D03*
%TD*%
D24*
%TO.C,U6*%
X104130000Y-105487500D03*
X105080000Y-105487500D03*
X106030000Y-105487500D03*
X106030000Y-103212500D03*
X104130000Y-103212500D03*
%TD*%
D25*
%TO.C,C4*%
X116440000Y-94500000D03*
X114540000Y-94500000D03*
%TD*%
D26*
%TO.C,R4*%
X131240000Y-65250000D03*
X132260000Y-65250000D03*
%TD*%
D27*
%TO.C,J3*%
X106040000Y-53550000D03*
X106040000Y-57450000D03*
X104770000Y-53550000D03*
X104770000Y-57450000D03*
X103500000Y-53550000D03*
X103500000Y-57450000D03*
X102230000Y-53550000D03*
X102230000Y-57450000D03*
X100960000Y-53550000D03*
X100960000Y-57450000D03*
%TD*%
D28*
%TO.C,H2*%
X140000000Y-54250000D03*
%TD*%
D18*
%TO.C,R10*%
X93010000Y-69200000D03*
X91990000Y-69200000D03*
%TD*%
D21*
%TO.C,C42*%
X129030000Y-88900000D03*
X128070000Y-88900000D03*
%TD*%
D18*
%TO.C,R24*%
X101510000Y-105250000D03*
X100490000Y-105250000D03*
%TD*%
D29*
%TO.C,J2*%
X138610000Y-77340000D03*
X138610000Y-71560000D03*
D30*
X137165000Y-77700000D03*
X137165000Y-76900000D03*
D31*
X137165000Y-75700000D03*
X137165000Y-74700000D03*
X137165000Y-74200000D03*
X137165000Y-73200000D03*
D30*
X137165000Y-72000000D03*
X137165000Y-71200000D03*
X137165000Y-71200000D03*
X137165000Y-72000000D03*
D31*
X137165000Y-72700000D03*
X137165000Y-73700000D03*
X137165000Y-75200000D03*
X137165000Y-76200000D03*
D30*
X137165000Y-76900000D03*
X137165000Y-77700000D03*
D32*
X138080000Y-78770000D03*
D33*
X142260000Y-78770000D03*
D32*
X138080000Y-70130000D03*
D33*
X142260000Y-70130000D03*
%TD*%
D21*
%TO.C,C16*%
X118730000Y-81250000D03*
X117770000Y-81250000D03*
%TD*%
D20*
%TO.C,C30*%
X94750000Y-104230000D03*
X94750000Y-103270000D03*
%TD*%
D28*
%TO.C,H3*%
X89000000Y-127500000D03*
%TD*%
D18*
%TO.C,R16*%
X140260000Y-68250000D03*
X139240000Y-68250000D03*
%TD*%
D22*
%TO.C,R31*%
X99480000Y-83940000D03*
X99480000Y-84960000D03*
%TD*%
D34*
%TO.C,R27*%
X97500000Y-99160000D03*
X97500000Y-98140000D03*
%TD*%
D18*
%TO.C,R15*%
X140260000Y-80750000D03*
X139240000Y-80750000D03*
%TD*%
%TO.C,R3*%
X114750000Y-110500000D03*
X113730000Y-110500000D03*
%TD*%
%TO.C,R12*%
X93010000Y-70450000D03*
X91990000Y-70450000D03*
%TD*%
D35*
%TO.C,L2*%
X129235400Y-56750000D03*
X134264600Y-56750000D03*
%TD*%
D18*
%TO.C,R1*%
X116750000Y-110500000D03*
X115730000Y-110500000D03*
%TD*%
%TO.C,R21*%
X97110000Y-57000000D03*
X96090000Y-57000000D03*
%TD*%
D21*
%TO.C,C23*%
X97080000Y-55750000D03*
X96120000Y-55750000D03*
%TD*%
D20*
%TO.C,C28*%
X102380000Y-108530000D03*
X102380000Y-107570000D03*
%TD*%
D23*
%TO.C,C36*%
X95480000Y-89875000D03*
X95480000Y-91425000D03*
%TD*%
D21*
%TO.C,C21*%
X131080000Y-71500000D03*
X130120000Y-71500000D03*
%TD*%
D36*
%TO.C,C25*%
X104125000Y-101617500D03*
X104125000Y-100482500D03*
%TD*%
D37*
%TO.C,J5*%
X127250000Y-117460000D03*
D38*
X129790000Y-117460000D03*
D39*
X122170000Y-122540000D03*
X132330000Y-122540000D03*
%TD*%
D22*
%TO.C,R35*%
X129900000Y-107790000D03*
X129900000Y-108810000D03*
%TD*%
D40*
%TO.C,D3*%
X108500000Y-51950000D03*
X108500000Y-54050000D03*
%TD*%
D15*
%TO.C,C32*%
X90675000Y-85650000D03*
X89125000Y-85650000D03*
%TD*%
D41*
%TO.C,D2*%
X90000000Y-69000000D03*
X90000000Y-72000000D03*
X88500000Y-72000000D03*
X88500000Y-69000000D03*
%TD*%
D25*
%TO.C,C6*%
X114750000Y-112250000D03*
X112850000Y-112250000D03*
%TD*%
D42*
%TO.C,C22*%
X92825000Y-54750000D03*
X94375000Y-54750000D03*
%TD*%
D18*
%TO.C,R32*%
X128260000Y-97750000D03*
X127240000Y-97750000D03*
%TD*%
D34*
%TO.C,R25*%
X98080000Y-105260000D03*
X98080000Y-104240000D03*
%TD*%
D22*
%TO.C,R28*%
X103580000Y-107540000D03*
X103580000Y-108560000D03*
%TD*%
D14*
%TO.C,C37*%
X96880000Y-90170000D03*
X96880000Y-91130000D03*
%TD*%
D26*
%TO.C,R7*%
X102908800Y-74190400D03*
X103928800Y-74190400D03*
%TD*%
D21*
%TO.C,C9*%
X132230000Y-66500000D03*
X131270000Y-66500000D03*
%TD*%
D43*
%TO.C,C5*%
X111390000Y-99250000D03*
X111390000Y-97350000D03*
%TD*%
D23*
%TO.C,C46*%
X126650000Y-90925000D03*
X126650000Y-92475000D03*
%TD*%
D34*
%TO.C,R14*%
X123000000Y-79260000D03*
X123000000Y-78240000D03*
%TD*%
D44*
%TO.C,R2*%
X116440000Y-90637500D03*
X116440000Y-92462500D03*
%TD*%
D45*
%TO.C,U8*%
X93317500Y-96700000D03*
X93317500Y-94800000D03*
X91442500Y-95750000D03*
%TD*%
D19*
%TO.C,D5*%
X101725000Y-61000000D03*
X103825000Y-61000000D03*
%TD*%
D46*
%TO.C,U4*%
X111570000Y-72250000D03*
X111570000Y-72750000D03*
X111570000Y-73250000D03*
X111570000Y-73750000D03*
X111570000Y-74250000D03*
X111570000Y-74750000D03*
X111570000Y-75250000D03*
X111570000Y-75750000D03*
X111570000Y-76250000D03*
X111570000Y-76750000D03*
X111570000Y-77250000D03*
X111570000Y-77750000D03*
D47*
X113000000Y-79180000D03*
X113500000Y-79180000D03*
X114000000Y-79180000D03*
X114500000Y-79180000D03*
X115000000Y-79180000D03*
X115500000Y-79180000D03*
X116000000Y-79180000D03*
X116500000Y-79180000D03*
X117000000Y-79180000D03*
X117500000Y-79180000D03*
X118000000Y-79180000D03*
X118500000Y-79180000D03*
D46*
X119930000Y-77750000D03*
X119930000Y-77250000D03*
X119930000Y-76750000D03*
X119930000Y-76250000D03*
X119930000Y-75750000D03*
X119930000Y-75250000D03*
X119930000Y-74750000D03*
X119930000Y-74250000D03*
X119930000Y-73750000D03*
X119930000Y-73250000D03*
X119930000Y-72750000D03*
X119930000Y-72250000D03*
D47*
X118500000Y-70820000D03*
X118000000Y-70820000D03*
X117500000Y-70820000D03*
X117000000Y-70820000D03*
X116500000Y-70820000D03*
X116000000Y-70820000D03*
X115500000Y-70820000D03*
X115000000Y-70820000D03*
X114500000Y-70820000D03*
X114000000Y-70820000D03*
X113500000Y-70820000D03*
X113000000Y-70820000D03*
%TD*%
D15*
%TO.C,C33*%
X93255000Y-98525000D03*
X91705000Y-98525000D03*
%TD*%
D37*
%TO.C,J4*%
X101750000Y-117460000D03*
D38*
X104290000Y-117460000D03*
D39*
X96670000Y-122540000D03*
X106830000Y-122540000D03*
%TD*%
D18*
%TO.C,R23*%
X103510000Y-110000000D03*
X102490000Y-110000000D03*
%TD*%
D22*
%TO.C,R17*%
X92750000Y-52490000D03*
X92750000Y-53510000D03*
%TD*%
D21*
%TO.C,C40*%
X127930000Y-102500000D03*
X126970000Y-102500000D03*
%TD*%
D48*
%TO.C,D7*%
X98700000Y-59150000D03*
X98700000Y-57050000D03*
%TD*%
D21*
%TO.C,C20*%
X89480000Y-67000000D03*
X88520000Y-67000000D03*
%TD*%
D22*
%TO.C,R33*%
X129250000Y-101490000D03*
X129250000Y-102510000D03*
%TD*%
D49*
%TO.C,U2*%
X114102500Y-107050000D03*
X114102500Y-108000000D03*
X114102500Y-108950000D03*
X116377500Y-108950000D03*
X116377500Y-107050000D03*
%TD*%
D50*
%TO.C,C26*%
X101580000Y-100782500D03*
X101580000Y-101917500D03*
%TD*%
D51*
%TO.C,U5*%
X131247500Y-74940000D03*
X131247500Y-73990000D03*
X131247500Y-73040000D03*
X128972500Y-73040000D03*
X128972500Y-73990000D03*
X128972500Y-74940000D03*
%TD*%
D26*
%TO.C,R6*%
X128990000Y-65250000D03*
X130010000Y-65250000D03*
%TD*%
D22*
%TO.C,R11*%
X115500000Y-59990000D03*
X115500000Y-61010000D03*
%TD*%
D19*
%TO.C,D8*%
X102150000Y-113250000D03*
X104250000Y-113250000D03*
%TD*%
D28*
%TO.C,H4*%
X140000000Y-127500000D03*
%TD*%
D14*
%TO.C,C29*%
X99380000Y-105270000D03*
X99380000Y-106230000D03*
%TD*%
D52*
%TO.C,U1*%
X116440000Y-98250000D03*
%TD*%
D13*
%TO.C,C7*%
X128550000Y-61850000D03*
X128550000Y-63750000D03*
%TD*%
D17*
%TO.C,C45*%
X131520000Y-104000000D03*
X132480000Y-104000000D03*
%TD*%
D22*
%TO.C,R9*%
X124720000Y-72590000D03*
X124720000Y-73610000D03*
%TD*%
D20*
%TO.C,C11*%
X108066500Y-76724600D03*
X108066500Y-75764600D03*
%TD*%
D26*
%TO.C,R8*%
X111940000Y-80950000D03*
X112960000Y-80950000D03*
%TD*%
D51*
%TO.C,U10*%
X129887500Y-105950000D03*
X129887500Y-105000000D03*
X129887500Y-104050000D03*
X127612500Y-104050000D03*
X127612500Y-105950000D03*
%TD*%
D28*
%TO.C,H1*%
X89000000Y-54250000D03*
%TD*%
D26*
%TO.C,R20*%
X100240000Y-62600000D03*
X101260000Y-62600000D03*
%TD*%
D49*
%TO.C,U7*%
X97542500Y-100800000D03*
X97542500Y-101750000D03*
X97542500Y-102700000D03*
X99817500Y-102700000D03*
X99817500Y-100800000D03*
%TD*%
D53*
%TO.C,C13*%
X108384000Y-72549200D03*
X108384000Y-70999200D03*
%TD*%
D18*
%TO.C,R13*%
X93010000Y-71750000D03*
X91990000Y-71750000D03*
%TD*%
D53*
%TO.C,C34*%
X95480000Y-94875000D03*
X95480000Y-93325000D03*
%TD*%
D21*
%TO.C,C39*%
X98985000Y-88227794D03*
X98025000Y-88227794D03*
%TD*%
D20*
%TO.C,C1*%
X117990000Y-108005000D03*
X117990000Y-107045000D03*
%TD*%
D54*
%TO.C,S1*%
X92850000Y-56550000D03*
X92850000Y-59950000D03*
D55*
X94500000Y-58250000D03*
%TD*%
D56*
%TO.C,D1*%
X140050000Y-63450000D03*
X140050000Y-61875000D03*
%TD*%
D20*
%TO.C,C35*%
X96880000Y-94500000D03*
X96880000Y-93540000D03*
%TD*%
D17*
%TO.C,C14*%
X112755400Y-69000000D03*
X113715400Y-69000000D03*
%TD*%
D20*
%TO.C,C10*%
X109501600Y-76724600D03*
X109501600Y-75764600D03*
%TD*%
D19*
%TO.C,D6*%
X98225000Y-61000000D03*
X100325000Y-61000000D03*
%TD*%
D34*
%TO.C,R29*%
X101100000Y-99160000D03*
X101100000Y-98140000D03*
%TD*%
D23*
%TO.C,C3*%
X131662500Y-78275000D03*
X131662500Y-79825000D03*
%TD*%
D18*
%TO.C,R37*%
X130310000Y-97750000D03*
X129290000Y-97750000D03*
%TD*%
D26*
%TO.C,R18*%
X108490000Y-61000000D03*
X109510000Y-61000000D03*
%TD*%
D51*
%TO.C,U3*%
X132887500Y-63750000D03*
X132887500Y-62800000D03*
X132887500Y-61850000D03*
X130612500Y-61850000D03*
X130612500Y-63750000D03*
%TD*%
D57*
%TO.C,FB1*%
X108155500Y-78251200D03*
X106580500Y-78251200D03*
%TD*%
D58*
%TO.C,C27*%
X104912500Y-108550000D03*
X106047500Y-108550000D03*
%TD*%
D17*
%TO.C,C19*%
X102918800Y-72690400D03*
X103878800Y-72690400D03*
%TD*%
%TO.C,C44*%
X129170000Y-100100000D03*
X130130000Y-100100000D03*
%TD*%
D26*
%TO.C,R34*%
X130490000Y-102500000D03*
X131510000Y-102500000D03*
%TD*%
D34*
%TO.C,R5*%
X140050000Y-65922500D03*
X140050000Y-64902500D03*
%TD*%
D17*
%TO.C,C24*%
X99400000Y-104250000D03*
X100360000Y-104250000D03*
%TD*%
D22*
%TO.C,R30*%
X90700000Y-87140000D03*
X90700000Y-88160000D03*
%TD*%
D20*
%TO.C,C12*%
X106631400Y-76724600D03*
X106631400Y-75764600D03*
%TD*%
D59*
%TO.C,Y1*%
X105648600Y-69171600D03*
X103448600Y-69171600D03*
X103448600Y-70871600D03*
X105648600Y-70871600D03*
%TD*%
D60*
%TO.C,SW1*%
X117750000Y-52750000D03*
X114750000Y-52750000D03*
D61*
X118500000Y-54500000D03*
X115500000Y-54500000D03*
X114000000Y-54500000D03*
D62*
X119900000Y-53715000D03*
X119900000Y-51785000D03*
X112600000Y-51785000D03*
X112600000Y-53715000D03*
%TD*%
D26*
%TO.C,R22*%
X105990000Y-107250000D03*
X107010000Y-107250000D03*
%TD*%
M02*
