M48
; DRILL file {KiCad 9.0.6} date 2025-12-09T00:58:15-0600
; FORMAT={-:-/ absolute / metric / decimal}
; #@! TF.CreationDate,2025-12-09T00:58:15-06:00
; #@! TF.GenerationSoftware,Kicad,Pcbnew,9.0.6
; #@! TF.FileFunction,MixedPlating,1,4
FMAT,2
METRIC
; #@! TA.AperFunction,Plated,PTH,ViaDrill
T1C0.300
; #@! TA.AperFunction,Plated,PTH,ViaDrill
T2C0.400
; #@! TA.AperFunction,Plated,PTH,ComponentDrill
T3C0.600
; #@! TA.AperFunction,Plated,PTH,ComponentDrill
T4C0.900
; #@! TA.AperFunction,Plated,PTH,ComponentDrill
T5C2.000
; #@! TA.AperFunction,NonPlated,NPTH,ComponentDrill
T6C0.650
; #@! TA.AperFunction,NonPlated,NPTH,ComponentDrill
T7C0.900
; #@! TA.AperFunction,NonPlated,NPTH,ComponentDrill
T8C2.200
%
G90
G05
T1
X86.5Y-104.25
X86.5Y-106.75
X86.5Y-109.25
X87.4Y-65.85
X87.855Y-85.65
X88.5Y-65.85
X89.0Y-104.25
X89.0Y-106.75
X89.0Y-109.25
X90.5Y-67.0
X91.225Y-96.525
X91.225Y-97.325
X91.5Y-76.75
X91.5Y-104.25
X91.5Y-106.75
X91.5Y-109.25
X91.95Y-84.55
X91.95Y-85.65
X92.5Y-51.5
X92.85Y-61.05
X92.9Y-90.95
X93.6Y-51.35
X94.0Y-64.25
X94.0Y-66.75
X94.0Y-76.75
X94.0Y-90.95
X94.35Y-82.25
X94.75Y-102.35
X95.0Y-56.25
X95.48Y-82.27
X95.55Y-92.35
X95.7Y-58.25
X95.75Y-101.75
X96.5Y-64.25
X96.5Y-66.75
X96.5Y-76.75
X96.85Y-91.95
X96.85Y-92.7
X97.08Y-54.9
X97.175Y-88.023
X98.75Y-58.15
X99.225Y-61.0
X100.275Y-95.85
X100.5Y-106.25
X100.95Y-51.65
X101.1Y-113.25
X101.4Y-94.56
X101.75Y-75.95
X102.125Y-69.175
X102.4Y-99.85
X102.5Y-76.75
X102.5Y-97.25
X102.5Y-98.35
X102.5Y-101.9
X102.775Y-61.0
X102.95Y-106.925
X103.5Y-51.65
X103.5Y-99.85
X103.9Y-75.95
X103.9Y-77.5
X104.0Y-91.75
X104.0Y-94.25
X104.525Y-71.975
X104.75Y-51.65
X105.0Y-75.75
X105.0Y-77.61
X105.075Y-107.0
X105.1Y-100.475
X106.2Y-61.0
X106.5Y-91.75
X106.5Y-94.25
X107.35Y-75.15
X108.5Y-52.95
X108.8Y-75.15
X108.8Y-85.15
X109.0Y-89.25
X109.0Y-91.75
X109.4Y-70.6
X109.45Y-78.35
X109.95Y-54.05
X109.95Y-79.95
X109.95Y-85.15
X110.0Y-52.95
X110.4Y-78.95
X110.6Y-94.05
X110.6Y-95.05
X110.6Y-96.15
X111.25Y-71.25
X111.3Y-51.75
X111.3Y-53.75
X111.5Y-89.25
X111.5Y-91.75
X111.5Y-114.25
X111.5Y-116.75
X111.5Y-119.25
X111.875Y-66.8
X112.0Y-94.05
X112.0Y-95.05
X112.0Y-96.15
X112.1Y-70.55
X112.5Y-108.0
X112.75Y-67.6
X112.75Y-110.75
X113.3Y-94.05
X113.3Y-95.05
X113.45Y-72.15
X113.5Y-73.25
X114.0Y-55.9
X114.0Y-114.25
X114.0Y-116.75
X114.0Y-119.25
X114.2Y-65.95
X114.298Y-72.619
X115.0Y-66.75
X115.0Y-73.5
X116.0Y-73.0
X116.45Y-89.4
X116.5Y-114.25
X116.5Y-116.75
X116.5Y-119.25
X117.0Y-73.0
X117.55Y-89.4
X117.75Y-64.0
X117.75Y-72.2
X118.0Y-77.75
X118.0Y-109.025
X118.4Y-72.75
X118.5Y-56.4
X118.5Y-64.8
X119.6Y-56.4
X120.2Y-70.8
X120.325Y-82.45
X121.2Y-51.775
X121.2Y-53.7
X121.3Y-70.8
X121.5Y-94.25
X121.5Y-96.75
X121.5Y-99.25
X121.5Y-109.25
X121.5Y-111.75
X121.75Y-56.75
X121.75Y-59.25
X124.0Y-56.75
X124.0Y-59.25
X124.0Y-62.0
X124.0Y-64.25
X124.0Y-66.75
X124.0Y-69.25
X124.0Y-94.25
X124.0Y-96.75
X124.0Y-99.25
X124.0Y-109.25
X124.0Y-111.75
X124.25Y-79.5
X124.25Y-80.6
X124.7Y-71.45
X124.75Y-77.45
X124.8Y-104.975
X125.5Y-78.25
X125.8Y-71.45
X126.15Y-113.25
X126.5Y-109.25
X126.5Y-111.75
X126.65Y-93.7
X127.225Y-88.625
X127.4Y-64.75
X127.5Y-82.7
X128.15Y-65.25
X128.25Y-83.5
X128.45Y-84.75
X129.0Y-71.4
X129.175Y-93.3
X129.2Y-70.3
X129.25Y-85.5
X130.15Y-76.85
X130.25Y-62.8
X131.15Y-100.1
X131.25Y-76.66
X131.25Y-97.75
X131.5Y-62.8
X131.5Y-105.0
X131.75Y-94.0
X132.71Y-73.99
X132.85Y-94.05
X133.25Y-66.5
X133.25Y-67.6
X133.5Y-93.0
X133.5Y-104.0
X134.3Y-64.95
X134.6Y-93.0
X135.5Y-64.95
X136.5Y-86.75
X136.5Y-89.25
X136.5Y-91.75
X136.5Y-101.75
X136.5Y-104.25
X136.5Y-106.75
X137.0Y-61.85
X137.15Y-60.75
X138.25Y-68.25
X138.25Y-80.75
X138.3Y-61.85
X138.3Y-62.95
X139.0Y-86.75
X139.0Y-89.25
X139.0Y-91.75
X139.0Y-101.75
X139.0Y-104.25
X139.0Y-106.75
X139.05Y-65.9
X141.5Y-86.75
X141.5Y-89.25
X141.5Y-91.75
X141.5Y-101.75
X141.5Y-104.25
X141.5Y-106.75
T2
X100.6Y-81.45
X100.6Y-83.1
X101.6Y-81.45
X101.6Y-83.1
X131.612Y-81.15
X132.05Y-71.5
X133.412Y-81.15
X135.85Y-71.05
X135.85Y-77.842
X136.15Y-69.95
X136.15Y-78.942
T4
X101.75Y-117.46
X104.29Y-117.46
X127.25Y-117.46
X129.79Y-117.46
T5
X96.67Y-122.54
X106.83Y-122.54
X122.17Y-122.54
X132.33Y-122.54
T6
X138.61Y-71.56
X138.61Y-77.34
T7
X114.75Y-52.75
X117.75Y-52.75
T8
X89.0Y-54.25
X89.0Y-127.5
X140.0Y-54.25
X140.0Y-127.5
T3
G00X137.53Y-70.13
M15
G01X138.63Y-70.13
M16
G05
G00X137.53Y-78.77
M15
G01X138.63Y-78.77
M16
G05
G00X141.96Y-70.13
M15
G01X142.56Y-70.13
M16
G05
G00X141.96Y-78.77
M15
G01X142.56Y-78.77
M16
G05
M30
